<svg xmlns="http://www.w3.org/2000/svg" width="90" height="79" viewBox="0 0 90 79">
  <g id="Icon_Wolke_abgerundet" data-name="Icon Wolke abgerundet" transform="translate(-258 -425)">
    <rect id="Rechteck_2079" data-name="Rechteck 2079" width="90" height="79" rx="13" transform="translate(258 425)" fill="#fff"/>
    <g id="layer1" transform="translate(-19.571 66.212)">
      <g id="g6253" transform="translate(360.571 435.788) rotate(180)">
        <rect id="rect6257" width="77" height="77" fill="none"/>
        <path id="path4185" d="M5.133,18.822V11.481q0-3.235-.239-6Q4.656,2.763,4.256,0H.835Q.477,2.762.239,5.485t-.239,6v7.341Z" transform="translate(35.933 30.8)" fill="#FFA31C"/>
        <path id="path4942" d="M3.422,6.845A3.393,3.393,0,0,0,5.86,5.854,3.249,3.249,0,0,0,6.844,3.4,3.256,3.256,0,0,0,5.86.948,3.474,3.474,0,0,0,3.422,0,3.379,3.379,0,0,0,.984.948,3.256,3.256,0,0,0,0,3.4,3.249,3.249,0,0,0,.984,5.854,3.3,3.3,0,0,0,3.422,6.845Z" transform="translate(35.078 20.533)" fill="#FFA31C"/>
        <path id="path4154" d="M32.939,53.047A17.565,17.565,0,0,1,15.4,35.508v-.017c0-.214.039-.425.048-.638A17.486,17.486,0,0,1,17.539,0H59.461A17.565,17.565,0,0,1,77,17.539h0a17.511,17.511,0,0,1-12.158,16.6,11.462,11.462,0,0,1,.18,1.36h0a11.576,11.576,0,0,1-11.55,11.55h0a11.381,11.381,0,0,1-6.052-1.947,17.451,17.451,0,0,1-14.476,7.936h0Zm0-3.422h0A14.116,14.116,0,0,0,45.428,42.06l1.018-1.94,1.636,1.457A8.115,8.115,0,0,0,61.318,33.4l-.465-1.721,1.738-.395A14.1,14.1,0,0,0,73.578,17.541h0A14.091,14.091,0,0,0,59.461,3.428H17.539A14.091,14.091,0,0,0,3.422,17.543h0a14.092,14.092,0,0,0,13.883,14.1l1.947.032L18.969,33.6A14,14,0,0,0,32.937,49.626Z" transform="translate(0 11.976)" fill="#FFA31C"/>
      </g>
    </g>
  </g>
</svg>
