<?xml version="1.0" encoding="UTF-8"?><svg id="Ebene_1" xmlns="http://www.w3.org/2000/svg" viewBox="0 0 96 96"><path d="M60.92,33.61l19.53,14.65c.07.05.03.15-.05.15H15.61c-.08,0-.12-.1-.05-.15l19.53-14.65" style="fill:none; stroke:#fff; stroke-linecap:square; stroke-linejoin:round; stroke-width:4px;"/><path d="M80.54,33.55H15.46s-.05-.04-.02-.06l19.63-14.73s.01,0,.02,0h25.81s.02,0,.02,0l19.63,14.73s.01.06-.02.06Z" style="fill:none; stroke:#fff; stroke-linecap:square; stroke-linejoin:round; stroke-width:4px;"/><polygon points="61.32 48.32 72.37 90.28 24.43 90.28 35.48 48.32 35.48 19.02 35.48 18.53 41.79 5.72 55 5.72 61.32 18.53 61.32 48.32" style="fill:none; stroke:#fff; stroke-linecap:square; stroke-linejoin:round; stroke-width:4px;"/><polyline points="35.48 48.32 66.01 66.89 25.59 89.45" style="fill:none; stroke:#fff; stroke-linecap:square; stroke-linejoin:round; stroke-width:4px;"/><polyline points="61.32 48.32 30.67 66.88 71.49 89.45" style="fill:none; stroke:#fff; stroke-linecap:square; stroke-linejoin:round; stroke-width:4px;"/><line x1="16.22" y1="33.88" x2="16.22" y2="38.7" style="fill:none; stroke:#fff; stroke-linecap:square; stroke-linejoin:round; stroke-width:4px;"/><line x1="79.46" y1="33.88" x2="79.46" y2="38.7" style="fill:none; stroke:#fff; stroke-linecap:square; stroke-linejoin:round; stroke-width:4px;"/><line x1="16.22" y1="48.59" x2="16.22" y2="53.41" style="fill:none; stroke:#fff; stroke-linecap:square; stroke-linejoin:round; stroke-width:4px;"/><line x1="79.46" y1="48.59" x2="79.46" y2="53.41" style="fill:none; stroke:#fff; stroke-linecap:square; stroke-linejoin:round; stroke-width:4px;"/></svg>