<?xml version="1.0" encoding="UTF-8"?><svg id="Ebene_1" xmlns="http://www.w3.org/2000/svg" viewBox="0 0 96 96"><rect x="8.4" y="11.51" width="79.2" height="64.14" style="fill:none; stroke:#fff; stroke-linecap:square; stroke-linejoin:round; stroke-width:4px;"/><rect x="74.62" y="75.78" width="10.16" height="8.71" style="fill:none; stroke:#fff; stroke-linecap:square; stroke-linejoin:round; stroke-width:4px;"/><rect x="11.21" y="75.78" width="10.16" height="8.71" style="fill:none; stroke:#fff; stroke-linecap:square; stroke-linejoin:round; stroke-width:4px;"/><circle cx="39.26" cy="43.58" r="5.71" style="fill:none; stroke:#fff; stroke-linecap:square; stroke-linejoin:round; stroke-width:4px;"/><path d="M37.64,37.97l-1.72-6.14c-.25-.88.01-1.83.69-2.45.97-.9,2.65-2.05,5.15-2.46.79-.13,1.46.59,1.29,1.38l-2.04,9.14" style="fill:none; stroke:#fff; stroke-linecap:square; stroke-linejoin:round; stroke-width:4px;"/><path d="M43.41,39.33l4.12-4.52c.59-.7,1.53-1.01,2.42-.8,1.29.3,3.18,1.05,4.92,2.9.55.58.32,1.54-.42,1.84l-9.43,3.71" style="fill:none; stroke:#fff; stroke-linecap:square; stroke-linejoin:round; stroke-width:4px;"/><path d="M35.01,47.81l-3.85,4.54c-.59.7-1.53,1.01-2.42.8-1.29-.3-3.18-1.05-4.92-2.9-.55-.58-.32-1.54.42-1.84l8.96-3.52" style="fill:none; stroke:#fff; stroke-linecap:square; stroke-linejoin:round; stroke-width:4px;"/><path d="M33.57,42.34l-6.18-1.54c-.89-.22-1.58-.92-1.79-1.81-.3-1.29-.47-3.32.42-5.7.28-.75,1.24-.97,1.83-.43l7.18,6.52" style="fill:none; stroke:#fff; stroke-linecap:square; stroke-linejoin:round; stroke-width:4px;"/><path d="M45.02,44.58l6.23,1.36c.9.2,1.61.87,1.85,1.76.34,1.28.57,3.3-.24,5.71-.26.76-1.21,1.01-1.82.49l-7.33-6.27" style="fill:none; stroke:#fff; stroke-linecap:square; stroke-linejoin:round; stroke-width:4px;"/><path d="M41.07,49.18l1.72,6.14c.25.88-.01,1.83-.69,2.45-.97.9-2.65,2.05-5.15,2.46-.79.13-1.46-.59-1.29-1.38l2.11-9.48" style="fill:none; stroke:#fff; stroke-linecap:square; stroke-linejoin:round; stroke-width:4px;"/><circle cx="39.35" cy="43.58" r="24.36" style="fill:none; stroke:#fff; stroke-linecap:square; stroke-linejoin:round; stroke-width:4px;"/><line x1="70.73" y1="32.18" x2="79.7" y2="32.18" style="fill:none; stroke:#fff; stroke-linecap:square; stroke-linejoin:round; stroke-width:4px;"/><line x1="70.73" y1="43.18" x2="79.7" y2="43.18" style="fill:none; stroke:#fff; stroke-linecap:square; stroke-linejoin:round; stroke-width:4px;"/><line x1="70.73" y1="54.18" x2="79.7" y2="54.18" style="fill:none; stroke:#fff; stroke-linecap:square; stroke-linejoin:round; stroke-width:4px;"/></svg>