<?xml version="1.0" encoding="UTF-8"?><svg id="Ebene_1" xmlns="http://www.w3.org/2000/svg" viewBox="0 0 96 96"><circle cx="40.58" cy="75.93" r="7.19" style="fill:none; stroke:#fff; stroke-linecap:square; stroke-linejoin:round; stroke-width:4px;"/><path d="M48.1,63.88V15.07c0-4.3-3.37-7.79-7.52-7.79s-7.52,3.49-7.52,7.79v48.8c-3.64,2.43-6.04,6.58-6.04,11.28,0,7.49,6.07,13.56,13.56,13.56s13.56-6.07,13.56-13.56c0-4.71-2.4-8.85-6.04-11.28Z" style="fill:none; stroke:#fff; stroke-linecap:square; stroke-linejoin:round; stroke-width:4px;"/><line x1="40.58" y1="27.95" x2="40.58" y2="68.74" style="fill:none; stroke:#fff; stroke-linecap:square; stroke-linejoin:round; stroke-width:4px;"/><line x1="56.83" y1="14.88" x2="68.98" y2="14.88" style="fill:none; stroke:#fff; stroke-linecap:square; stroke-linejoin:round; stroke-width:4px;"/><line x1="56.83" y1="21.86" x2="62.9" y2="21.86" style="fill:none; stroke:#fff; stroke-linecap:square; stroke-linejoin:round; stroke-width:4px;"/><line x1="56.83" y1="28.85" x2="68.98" y2="28.85" style="fill:none; stroke:#fff; stroke-linecap:square; stroke-linejoin:round; stroke-width:4px;"/><line x1="56.83" y1="35.94" x2="62.9" y2="35.94" style="fill:none; stroke:#fff; stroke-linecap:square; stroke-linejoin:round; stroke-width:4px;"/><line x1="56.83" y1="42.93" x2="68.98" y2="42.93" style="fill:none; stroke:#fff; stroke-linecap:square; stroke-linejoin:round; stroke-width:4px;"/><line x1="56.83" y1="49.91" x2="62.9" y2="49.91" style="fill:none; stroke:#fff; stroke-linecap:square; stroke-linejoin:round; stroke-width:4px;"/></svg>