<?xml version="1.0" encoding="UTF-8"?><svg id="Ebene_1" xmlns="http://www.w3.org/2000/svg" viewBox="0 0 96 96"><polyline points="32.08 65.32 32.08 76.48 32.08 83.1" style="fill:none; stroke:#fff; stroke-linecap:square; stroke-linejoin:round; stroke-width:4px;"/><path d="M45.78,89.15l-9.47-.05c-2.33,0-4.22-1.89-4.22-4.22" style="fill:none; stroke:#fff; stroke-linecap:square; stroke-linejoin:round; stroke-width:4px;"/><line x1="73.31" y1="20.29" x2="73.31" y2="12.27" style="fill:none; stroke:#fff; stroke-linecap:square; stroke-linejoin:round; stroke-width:4px;"/><line x1="81.67" y1="20.29" x2="81.67" y2="12.27" style="fill:none; stroke:#fff; stroke-linecap:square; stroke-linejoin:round; stroke-width:4px;"/><path d="M67.1,20.46v5.28c0,3.84,2.34,7.14,5.67,8.56v13.73c0,2.6,2.12,4.72,4.72,4.72s4.72-2.12,4.72-4.72v-13.73c3.33-1.41,5.67-4.71,5.67-8.56v-5.28h-20.78Z" style="fill:none; stroke:#fff; stroke-linecap:square; stroke-linejoin:round; stroke-width:4px;"/><path d="M42.23,89.15h12.32s23,0,23,0c2.33,0,4.22-1.89,4.22-4.22s-1.89-4.22-4.22-4.22l-9.47-.05c-2.33,0-4.22-1.89-4.22-4.22s1.89-4.22,4.22-4.22l5.1.05c2.33,0,4.22-1.89,4.22-4.22v-13.96" style="fill:none; stroke:#fff; stroke-linecap:square; stroke-linejoin:round; stroke-width:4px;"/><path d="M32.41,5.31h-15.38c-4.89,0-8.9,4.37-8.9,9.7v17.68l.53,11.92c.06,1.3.53,10.54,1.33,11.51l4.67,5.61c.96,1.16,2.32,1.81,3.76,1.81,0,0,12.7,0,11.28,0h15.92c1.43,0,2.79-.66,3.76-1.81l4.67-5.61c.8-.97,1.27-10.2,1.33-11.51l.53-11.92V15.02c0-5.34-4-9.7-8.9-9.7h-17.11" style="fill:none; stroke:#fff; stroke-linecap:square; stroke-linejoin:round; stroke-width:4px;"/><line x1="44.34" y1="5.31" x2="42.34" y2="62.61" style="fill:none; stroke:#fff; stroke-linecap:square; stroke-linejoin:round; stroke-width:4px;"/><line x1="22.47" y1="62.61" x2="20.47" y2="5.31" style="fill:none; stroke:#fff; stroke-linecap:square; stroke-linejoin:round; stroke-width:4px;"/></svg>