<?xml version="1.0" encoding="UTF-8" standalone="no"?>
<!-- Created with Inkscape (http://www.inkscape.org/) -->

<svg
   width="1024mm"
   height="500mm"
   viewBox="0 0 1024 500"
   version="1.1"
   id="svg5"
   inkscape:version="1.1.2 (0a00cf5339, 2022-02-04)"
   sodipodi:docname="Zeichnung.svg"
   xmlns:inkscape="http://www.inkscape.org/namespaces/inkscape"
   xmlns:sodipodi="http://sodipodi.sourceforge.net/DTD/sodipodi-0.dtd"
   xmlns="http://www.w3.org/2000/svg"
   xmlns:svg="http://www.w3.org/2000/svg">
  <sodipodi:namedview
     id="namedview7"
     pagecolor="#ffffff"
     bordercolor="#666666"
     borderopacity="1.0"
     inkscape:pageshadow="2"
     inkscape:pageopacity="0.0"
     inkscape:pagecheckerboard="0"
     inkscape:document-units="mm"
     showgrid="false"
     inkscape:zoom="0.11313708"
     inkscape:cx="1431.8912"
     inkscape:cy="1595.4097"
     inkscape:window-width="1862"
     inkscape:window-height="1136"
     inkscape:window-x="58"
     inkscape:window-y="27"
     inkscape:window-maximized="1"
     inkscape:current-layer="layer1" />
  <defs
     id="defs2">
    <style
       id="style824">
      .cls-1 {
        fill: url(#Unbenannter_Verlauf_3);
      }

      .cls-2 {
        fill: #2b6eb9;
      }

      .cls-3 {
        font-family: MyriadPro-Regular, 'Myriad Pro';
        font-size: 62px;
      }

      .cls-4 {
        fill: #368578;
      }

      .cls-5 {
        fill: #0069b4;
      }

      .cls-6 {
        fill: #525252;
      }

      .cls-7 {
        fill: #fff;
      }

      .cls-8 {
        fill: #1f254c;
      }

      .cls-9 {
        fill: #f9b000;
      }

      .cls-10 {
        fill: #c9e0ee;
      }

      .cls-11 {
        letter-spacing: -.02em;
      }

      .cls-12 {
        fill: #00a439;
      }

      .cls-13 {
        letter-spacing: 0em;
      }

      .cls-14 {
        letter-spacing: 0em;
      }
    </style>
    <linearGradient
       id="Unbenannter_Verlauf_3"
       data-name="Unbenannter Verlauf 3"
       x1="1474.37"
       y1="1214.29"
       x2="2840.02"
       y2="1214.29"
       gradientUnits="userSpaceOnUse">
      <stop
         offset="0"
         stop-color="#1f254c"
         id="stop826" />
      <stop
         offset="1"
         stop-color="#0069b4"
         id="stop828" />
    </linearGradient>
    <linearGradient
       id="Unbenannter_Verlauf_3-6"
       data-name="Unbenannter Verlauf 3"
       x1="1474.37"
       y1="1214.29"
       x2="2840.02"
       y2="1214.29"
       gradientUnits="userSpaceOnUse">
      <stop
         offset="0"
         stop-color="#1f254c"
         id="stop826-3" />
      <stop
         offset="1"
         stop-color="#0069b4"
         id="stop828-9" />
    </linearGradient>
  </defs>
  <g
     inkscape:label="Ebene 1"
     inkscape:groupmode="layer"
     id="layer1">
    <rect
       style="fill:#ffffff;fill-opacity:1;stroke:#a0e2b7;stroke-width:0;stroke-miterlimit:4;stroke-dasharray:none"
       id="rect3674"
       width="1073.6582"
       height="533.12103"
       x="-3.8514917"
       y="-12.281158" />
    <g
       id="g3241"
       transform="matrix(3.2251073,0,0,3.2251073,162.67652,-135.36115)">
      <g
         id="g1989"
         transform="matrix(0.26458333,0,0,0.26458333,-462.22075,-499.46746)">
        <rect
           class="cls-8"
           x="26.17"
           y="755.66998"
           width="1364.14"
           height="912.87"
           id="rect833" />
        <rect
           class="cls-1"
           x="1474.37"
           y="758.89001"
           width="1365.65"
           height="910.79999"
           id="rect835"
           style="fill:url(#Unbenannter_Verlauf_3-6)" />
        <g
           id="g959">
          <g
             id="g865">
            <g
               id="g853">
              <path
                 class="cls-7"
                 d="m 1797.3,1287.68 h 21.94 v 161.43 h -21.94 v -15.67 c -6.94,11.87 -21.94,18.36 -36.05,18.36 -28.43,0 -51.94,-21.94 -51.94,-55.08 0,-33.14 23.51,-54.85 51.72,-54.85 14.78,0 29.33,6.27 36.27,18.13 z m -0.23,108.82 c 0,-21.05 -17.24,-34.03 -33.36,-34.03 -17.91,0 -32.46,14.33 -32.46,34.03 0,19.7 14.55,34.7 32.46,34.7 17.91,0 33.36,-13.66 33.36,-34.7 z"
                 id="path837" />
              <path
                 class="cls-7"
                 d="m 1922.45,1344.55 h 23.73 l -64.93,155.38 h -23.29 l 22.61,-55.53 -41.87,-99.86 h 23.73 l 30,72.76 30,-72.76 z"
                 id="path839" />
              <path
                 class="cls-7"
                 d="m 2062.6,1389.33 v 59.78 h -21.94 v -58.44 c 0,-17.02 -10.3,-27.32 -23.73,-27.32 -13.43,0 -30.23,7.84 -30.23,29.55 v 56.2 h -21.94 v -104.56 h 21.94 v 16.12 c 6.05,-12.99 22.84,-18.81 34.03,-18.81 26.42,0 42.09,17.69 41.87,47.46 z"
                 id="path841" />
              <path
                 class="cls-7"
                 d="m 2175.22,1344.55 h 21.94 v 104.56 h -21.94 v -17.69 c -6.72,12.09 -21.05,20.37 -37.17,20.37 -27.32,0 -50.82,-22.84 -50.82,-55.08 0,-32.24 22.17,-54.85 51.72,-54.85 15.22,0 29.55,6.49 36.27,18.36 z m -0.22,52.17 c 0,-20.15 -16.79,-34.26 -33.58,-34.26 -17.91,0 -32.02,15.67 -32.02,34.26 0,18.59 14.1,34.48 32.46,34.48 18.36,0 33.14,-14.78 33.14,-34.48 z"
                 id="path843" />
              <path
                 class="cls-7"
                 d="m 2395.08,1389.33 v 59.78 h -22.17 v -58.66 c 0,-17.02 -8.96,-27.54 -23.06,-27.54 -17.24,-0.22 -26.2,12.09 -26.2,34.03 v 52.17 h -22.17 v -58.66 c 0,-17.02 -8.96,-27.54 -21.94,-27.54 -13.66,0 -27.54,8.73 -27.54,30 v 56.2 h -21.94 V 1344.55 H 2252 v 16.34 c 4.7,-11.64 18.58,-19.03 32.69,-19.03 15.22,0 27.99,8.06 34.26,21.94 8.96,-18.14 25.3,-21.94 35.82,-21.94 26.2,0 40.3,17.69 40.3,47.46 z"
                 id="path845" />
              <path
                 class="cls-7"
                 d="m 2426.42,1449.11 v -104.56 h 21.94 v 104.56 z"
                 id="path847" />
              <path
                 class="cls-7"
                 d="m 2474.34,1396.72 c 0,-33.14 26.2,-54.85 56.42,-54.85 17.02,0 31.57,6.94 40.75,17.91 l -14.55,13.66 c -6.04,-6.72 -15.22,-10.97 -25.75,-10.97 -19.48,0 -34.93,14.33 -34.93,34.26 0,19.93 15.45,34.48 34.93,34.48 10.52,0 19.7,-4.25 25.75,-10.97 l 14.55,13.66 c -9.18,10.97 -23.73,17.91 -40.75,17.91 -30.23,0 -56.42,-21.94 -56.42,-55.08 z"
                 id="path849" />
              <path
                 class="cls-7"
                 d="m 2587.62,1417.77 h 20.37 c 0,8.28 7.39,15.45 19.25,15.45 11.86,0 19.48,-6.04 19.48,-13.88 0,-6.94 -5.6,-10.52 -13.43,-12.31 l -14.11,-3.36 c -19.48,-5.15 -28.43,-15.22 -28.43,-30.67 0,-17.02 15.45,-31.12 37.17,-31.12 17.91,0 37.17,9.4 37.17,31.34 h -21.05 c 0,-7.61 -7.84,-12.76 -15.67,-12.76 -9.18,0 -15.45,6.04 -15.45,13.21 0,6.49 6.04,10.08 12.54,11.64 l 15.9,3.81 c 22.39,5.6 27.31,19.48 27.31,30.67 0,19.93 -19.7,32.02 -41.2,32.02 -19.48,0 -39.4,-12.09 -39.85,-34.03 z"
                 id="path851" />
            </g>
            <g
               id="g863">
              <path
                 class="cls-5"
                 d="m 1930.52,1207.79 v 17.91 l -61.57,66.05 h 61.57 v 20.6 h -92.47 v -17.91 l 60.45,-66.05 h -56.87 v -20.6 z"
                 id="path855" />
              <path
                 class="cls-5"
                 d="m 2055.23,1268.91 h -83.29 c 2.91,17.02 15.45,25.75 32.24,25.75 12.31,0 23.73,-5.6 29.55,-15.22 l 17.46,8.73 c -9.18,17.46 -27.99,26.87 -47.91,26.87 -30.23,0 -53.96,-22.17 -53.96,-55.3 0,-33.13 24.18,-54.63 53.96,-54.63 29.78,0 52.39,21.49 52.39,54.41 0,2.91 -0.22,6.04 -0.45,9.4 z m -21.49,-17.68 c -2.24,-16.34 -14.1,-25.75 -30.23,-25.75 -16.13,0 -28.21,8.28 -31.34,25.75 z"
                 id="path857" />
              <path
                 class="cls-5"
                 d="m 2210.17,1207.79 h 23.73 l -38.29,104.56 h -18.58 l -27.09,-75 -26.2,75 h -18.14 l -39.63,-104.56 h 23.73 l 25.08,71.42 24.85,-71.42 h 20.6 l 25.08,71.42 24.85,-71.42 z"
                 id="path859" />
              <path
                 class="cls-5"
                 d="m 2244.64,1259.96 c 0,-33.14 25.08,-54.85 54.85,-54.85 29.77,0 55.08,21.72 55.08,54.85 0,33.13 -25.3,55.08 -55.08,55.08 -29.78,0 -54.85,-21.94 -54.85,-55.08 z m 87.99,0 c 0,-20.15 -15.22,-34.26 -33.14,-34.26 -17.92,0 -32.91,14.11 -32.91,34.26 0,20.15 15,34.48 32.91,34.48 17.91,0 33.14,-14.11 33.14,-34.48 z"
                 id="path861" />
            </g>
          </g>
          <g
             id="g957">
            <path
               class="cls-7"
               d="m 2160.55,1148.49 c 3.84,-2 8.58,-0.5 10.58,3.34 2,3.84 0.5,8.58 -3.34,10.58 -3.84,2 -8.58,0.5 -10.58,-3.34 -2,-3.84 -0.5,-8.58 3.34,-10.58 z"
               id="path867" />
            <path
               class="cls-9"
               d="m 2172.76,1105.15 c 4.43,-2.31 9.9,-0.58 12.2,3.85 2.31,4.43 0.58,9.9 -3.85,12.2 -4.43,2.31 -9.9,0.58 -12.2,-3.85 -2.31,-4.43 -0.58,-9.9 3.85,-12.2 z"
               id="path869" />
            <circle
               class="cls-7"
               cx="2202.0701"
               cy="1076.88"
               r="10.26"
               id="circle871" />
            <path
               class="cls-7"
               d="m 2231.97,1040 c 5.62,-2.92 12.54,-0.74 15.46,4.88 2.92,5.62 0.74,12.54 -4.88,15.46 -5.62,2.92 -12.54,0.74 -15.46,-4.88 -2.92,-5.62 -0.74,-12.54 4.88,-15.46 z"
               id="path873" />
            <path
               class="cls-7"
               d="m 2273.05,1024.3 c 6.25,-3.25 13.96,-0.82 17.21,5.43 3.25,6.25 0.82,13.96 -5.43,17.21 -6.25,3.25 -13.96,0.82 -17.21,-5.43 -3.25,-6.25 -0.82,-13.96 5.43,-17.21 z"
               id="path875" />
            <path
               class="cls-7"
               d="m 2316.46,1021.94 c 7.01,-3.64 15.64,-0.92 19.28,6.09 3.64,7.01 0.92,15.64 -6.09,19.28 -7.01,3.64 -15.64,0.92 -19.28,-6.09 -3.64,-7.01 -0.92,-15.64 6.09,-19.28 z"
               id="path877" />
            <path
               class="cls-7"
               d="m 2358.15,1033.57 c 7.63,-3.97 17.03,-1 21,6.63 3.97,7.63 1,17.03 -6.63,21 -7.63,3.97 -17.03,1 -21,-6.63 -3.97,-7.63 -1,-17.03 6.63,-21 z"
               id="path879" />
            <circle
               class="cls-7"
               cx="2401.6399"
               cy="1072.51"
               r="13.44"
               transform="rotate(-27.48,2401.3476,1072.4698)"
               id="circle881" />
            <path
               class="cls-7"
               d="m 2116.09,1154.95 c 1.37,-0.71 3.06,-0.18 3.77,1.19 0.71,1.37 0.18,3.06 -1.19,3.77 -1.37,0.71 -3.06,0.18 -3.77,-1.19 -0.71,-1.37 -0.18,-3.06 1.19,-3.77 z"
               id="path883" />
            <circle
               class="cls-7"
               cx="2125.8601"
               cy="1116.33"
               r="3.96"
               id="circle885" />
            <path
               class="cls-7"
               d="m 2140.97,1073.66 c 2.48,-1.29 5.54,-0.32 6.83,2.16 1.29,2.48 0.32,5.54 -2.16,6.83 -2.48,1.29 -5.54,0.32 -6.83,-2.16 -1.29,-2.48 -0.32,-5.54 2.16,-6.83 z"
               id="path887" />
            <path
               class="cls-7"
               d="m 2165.92,1039.34 c 3.02,-1.57 6.74,-0.4 8.31,2.62 1.57,3.02 0.4,6.74 -2.62,8.31 -3.02,1.57 -6.74,0.4 -8.31,-2.62 -1.57,-3.02 -0.4,-6.74 2.62,-8.31 z"
               id="path889" />
            <path
               class="cls-7"
               d="m 2197.63,1011.49 c 3.56,-1.85 7.95,-0.47 9.8,3.09 1.85,3.56 0.47,7.95 -3.09,9.8 -3.56,1.85 -7.95,0.47 -9.8,-3.09 -1.85,-3.56 -0.47,-7.95 3.09,-9.8 z"
               id="path891" />
            <path
               class="cls-7"
               d="m 2234.61,991.68 c 4.01,-2.09 8.96,-0.53 11.04,3.49 2.09,4.01 0.53,8.96 -3.49,11.04 -4.02,2.08 -8.96,0.53 -11.04,-3.49 -2.09,-4.01 -0.53,-8.96 3.49,-11.04 z"
               id="path893" />
            <path
               class="cls-2"
               d="m 2274.92,980.75 c 4.43,-2.31 9.9,-0.58 12.2,3.85 2.31,4.43 0.58,9.9 -3.85,12.2 -4.43,2.31 -9.9,0.58 -12.2,-3.85 -2.31,-4.43 -0.58,-9.9 3.85,-12.2 z"
               id="path895" />
            <path
               class="cls-7"
               d="m 2316.5,979.05 c 4.86,-2.53 10.84,-0.64 13.37,4.22 2.53,4.86 0.64,10.84 -4.22,13.37 -4.86,2.53 -10.84,0.64 -13.37,-4.22 -2.53,-4.86 -0.64,-10.84 4.22,-13.37 z"
               id="path897" />
            <circle
               class="cls-7"
               cx="2362.1699"
               cy="996.31"
               r="10.77"
               id="circle899" />
            <path
               class="cls-7"
               d="m 2394.98,1003.42 c 5.7,-2.96 12.73,-0.75 15.69,4.95 2.96,5.7 0.75,12.73 -4.95,15.69 -5.7,2.96 -12.73,0.75 -15.69,-4.95 -2.96,-5.7 -0.75,-12.73 4.95,-15.69 z"
               id="path901" />
            <path
               class="cls-7"
               d="m 2427.9,1028.05 c 6.16,-3.2 13.74,-0.81 16.94,5.35 3.2,6.16 0.81,13.74 -5.35,16.94 -6.16,3.2 -13.74,0.81 -16.94,-5.35 -3.2,-6.16 -0.81,-13.74 5.35,-16.94 z"
               id="path903" />
            <circle
               class="cls-7"
               cx="2460.5801"
               cy="1071.4"
               r="13.58"
               transform="rotate(-27.48,2460.2824,1071.3635)"
               id="circle905" />
            <path
               class="cls-7"
               d="m 2472.77,1095.69 c 7.24,-3.77 16.17,-0.95 19.93,6.29 3.77,7.24 0.95,16.17 -6.29,19.93 -7.24,3.77 -16.17,0.95 -19.93,-6.29 -3.77,-7.24 -0.95,-16.17 6.29,-19.93 z"
               id="path907" />
            <path
               class="cls-2"
               d="m 2485.03,1135.56 c 7.24,-3.77 16.17,-0.95 19.93,6.29 3.77,7.24 0.95,16.17 -6.29,19.93 -7.24,3.77 -16.17,0.95 -19.93,-6.29 -3.77,-7.24 -0.95,-16.17 6.29,-19.93 z"
               id="path909" />
            <path
               class="cls-7"
               d="m 2483.5,1177.62 c 7.65,-3.98 17.09,-1 21.07,6.65 3.98,7.65 1,17.09 -6.65,21.07 -7.65,3.98 -17.09,1 -21.07,-6.65 -3.98,-7.65 -1,-17.09 6.65,-21.07 z"
               id="path911" />
            <path
               class="cls-7"
               d="m 2475.45,1219.49 c 7.23,-3.76 16.14,-0.95 19.9,6.28 3.76,7.23 0.95,16.14 -6.28,19.9 -7.23,3.76 -16.14,0.95 -19.9,-6.28 -3.76,-7.23 -0.95,-16.14 6.28,-19.9 z"
               id="path913" />
            <path
               class="cls-7"
               d="m 2458.64,1258.85 c 6.58,-3.42 14.69,-0.86 18.11,5.72 3.42,6.58 0.86,14.69 -5.72,18.11 -6.58,3.42 -14.69,0.86 -18.11,-5.72 -3.42,-6.58 -0.86,-14.69 5.72,-18.11 z"
               id="path915" />
            <path
               class="cls-12"
               d="m 2431.01,1293.84 c 7.26,-3.78 16.22,-0.95 19.99,6.31 3.78,7.26 0.95,16.22 -6.31,19.99 -7.26,3.78 -16.22,0.95 -19.99,-6.31 -3.78,-7.26 -0.95,-16.22 6.31,-19.99 z"
               id="path917" />
            <path
               class="cls-7"
               d="m 2096.13,1071.43 c 1.21,-0.63 2.7,-0.16 3.33,1.05 0.63,1.21 0.16,2.7 -1.05,3.33 -1.21,0.63 -2.7,0.16 -3.33,-1.05 -0.63,-1.21 -0.16,-2.7 1.05,-3.33 z"
               id="path919" />
            <circle
               class="cls-7"
               cx="2118.1899"
               cy="1038.3199"
               r="3.4100001"
               id="circle921" />
            <path
               class="cls-12"
               d="m 2143,1003.44 c 2.08,-1.08 4.65,-0.27 5.74,1.81 1.08,2.08 0.27,4.65 -1.81,5.74 -2.08,1.08 -4.65,0.27 -5.74,-1.81 -1.09,-2.08 -0.27,-4.65 1.81,-5.74 z"
               id="path923" />
            <circle
               class="cls-7"
               cx="2176.72"
               cy="981.25"
               r="5.0999999"
               id="circle925" />
            <path
               class="cls-7"
               d="m 2209.74,955.89 c 2.91,-1.51 6.5,-0.38 8.01,2.53 1.51,2.91 0.38,6.5 -2.53,8.01 -2.91,1.51 -6.5,0.38 -8.01,-2.53 -1.51,-2.91 -0.38,-6.5 2.53,-8.01 z"
               id="path927" />
            <path
               class="cls-7"
               d="m 2248.07,941.53 c 3.32,-1.73 7.42,-0.44 9.15,2.89 1.73,3.32 0.44,7.42 -2.89,9.15 -3.32,1.73 -7.42,0.44 -9.15,-2.89 -1.73,-3.32 -0.44,-7.42 2.89,-9.15 z"
               id="path929" />
            <path
               class="cls-7"
               d="m 2288.18,934.15 c 3.71,-1.93 8.29,-0.49 10.22,3.23 1.93,3.71 0.49,8.29 -3.23,10.22 -3.71,1.93 -8.29,0.49 -10.22,-3.23 -1.93,-3.72 -0.49,-8.29 3.23,-10.22 z"
               id="path931" />
            <path
               class="cls-7"
               d="m 2328.9,934.08 c 4.04,-2.1 9.01,-0.53 11.11,3.51 2.1,4.04 0.53,9.01 -3.51,11.11 -4.04,2.1 -9.01,0.53 -11.11,-3.51 -2.1,-4.04 -0.53,-9.01 3.51,-11.11 z"
               id="path933" />
            <path
               class="cls-4"
               d="m 2368.91,941.13 c 4.36,-2.27 9.73,-0.57 12,3.79 2.27,4.36 0.57,9.73 -3.79,12 -4.36,2.27 -9.73,0.57 -12,-3.79 -2.27,-4.36 -0.57,-9.73 3.79,-12 z"
               id="path935" />
            <path
               class="cls-7"
               d="m 2407.01,954.99 c 4.68,-2.43 10.45,-0.61 12.89,4.07 2.43,4.68 0.61,10.45 -4.07,12.89 -4.68,2.43 -10.45,0.61 -12.89,-4.07 -2.43,-4.68 -0.61,-10.45 4.07,-12.89 z"
               id="path937" />
            <circle
               class="cls-7"
               cx="2446.73"
               cy="984.38"
               r="10.21"
               id="circle939" />
            <path
               class="cls-7"
               d="m 2472.82,1001.5 c 5.33,-2.77 11.89,-0.7 14.66,4.63 2.77,5.33 0.7,11.89 -4.63,14.66 -5.33,2.77 -11.89,0.7 -14.66,-4.63 -2.77,-5.33 -0.7,-11.89 4.63,-14.66 z"
               id="path941" />
            <path
               class="cls-7"
               d="m 2498.49,1032.67 c 5.65,-2.94 12.61,-0.74 15.55,4.91 2.94,5.65 0.74,12.61 -4.91,15.55 -5.65,2.94 -12.61,0.74 -15.55,-4.91 -2.94,-5.65 -0.74,-12.61 4.91,-15.55 z"
               id="path943" />
            <path
               class="cls-9"
               d="m 2518.26,1067.8 c 6,-3.12 13.39,-0.79 16.51,5.21 3.12,6 0.79,13.39 -5.21,16.51 -6,3.12 -13.39,0.79 -16.51,-5.21 -3.12,-6 -0.79,-13.39 5.21,-16.51 z"
               id="path945" />
            <path
               class="cls-7"
               d="m 2531.52,1105.83 c 6.37,-3.31 14.22,-0.83 17.54,5.54 3.31,6.37 0.83,14.22 -5.54,17.54 -6.37,3.31 -14.22,0.83 -17.54,-5.54 -3.31,-6.37 -0.83,-14.22 5.54,-17.54 z"
               id="path947" />
            <path
               class="cls-7"
               d="m 2537.8,1145.54 c 6.8,-3.54 15.17,-0.89 18.71,5.91 3.54,6.8 0.89,15.17 -5.91,18.71 -6.8,3.54 -15.17,0.89 -18.71,-5.91 -3.54,-6.8 -0.89,-15.17 5.91,-18.71 z"
               id="path949" />
            <path
               class="cls-7"
               d="m 2536.89,1185.77 c 7.23,-3.76 16.15,-0.95 19.91,6.29 3.76,7.23 0.95,16.15 -6.29,19.91 -7.23,3.76 -16.15,0.95 -19.91,-6.29 -3.76,-7.23 -0.95,-16.15 6.29,-19.91 z"
               id="path951" />
            <path
               class="cls-7"
               d="m 2529.02,1225.61 c 7.5,-3.9 16.74,-0.98 20.64,6.52 3.9,7.5 0.98,16.74 -6.52,20.64 -7.5,3.9 -16.74,0.98 -20.64,-6.52 -3.9,-7.5 -0.98,-16.74 6.52,-20.64 z"
               id="path953" />
            <path
               class="cls-7"
               d="m 2514.54,1263.94 c 7.54,-3.92 16.83,-0.99 20.75,6.55 3.92,7.54 0.99,16.83 -6.55,20.75 -7.54,3.92 -16.83,0.99 -20.75,-6.55 -3.92,-7.54 -0.99,-16.83 6.55,-20.75 z"
               id="path955" />
          </g>
        </g>
        <rect
           class="cls-10"
           y="1878.13"
           width="1364.14"
           height="912.87"
           id="rect961"
           x="0" />
        <text
           class="cls-3"
           transform="translate(29.38,1754.35)"
           id="text977"><tspan
             class="cls-14"
             x="0"
             y="0"
             id="tspan963">S</tspan><tspan
             x="30.940001"
             y="0"
             id="tspan965">ofia</tspan><tspan
             class="cls-11"
             x="140.42999"
             y="0"
             id="tspan967">P</tspan><tspan
             class="cls-13"
             x="172.42"
             y="0"
             id="tspan969">r</tspan><tspan
             x="192.08"
             y="0"
             id="tspan971">o (</tspan><tspan
             class="cls-14"
             x="256.85999"
             y="0"
             id="tspan973">M</tspan><tspan
             x="307.07999"
             y="0"
             id="tspan975">edium)</tspan></text>
        <g
           id="g1101">
          <g
             id="g1007">
            <g
               id="g995">
              <path
                 class="cls-7"
                 d="m 292.25,1281.4 h 21.94 v 161.43 h -21.94 v -15.67 c -6.94,11.87 -21.94,18.36 -36.05,18.36 -28.43,0 -51.94,-21.94 -51.94,-55.08 0,-33.14 23.51,-54.85 51.72,-54.85 14.78,0 29.33,6.27 36.27,18.13 z m -0.22,108.81 c 0,-21.05 -17.24,-34.03 -33.36,-34.03 -17.91,0 -32.46,14.33 -32.46,34.03 0,19.7 14.55,34.7 32.46,34.7 17.91,0 33.36,-13.66 33.36,-34.7 z"
                 id="path979" />
              <path
                 class="cls-7"
                 d="m 417.4,1338.27 h 23.73 l -64.93,155.38 h -23.29 l 22.61,-55.53 -41.87,-99.86 h 23.73 l 30,72.76 30,-72.76 z"
                 id="path981" />
              <path
                 class="cls-7"
                 d="m 557.56,1383.05 v 59.78 h -21.94 v -58.44 c 0,-17.02 -10.3,-27.32 -23.73,-27.32 -13.43,0 -30.23,7.84 -30.23,29.55 v 56.2 h -21.94 v -104.56 h 21.94 v 16.12 c 6.05,-12.99 22.84,-18.81 34.03,-18.81 26.42,0 42.09,17.69 41.87,47.46 z"
                 id="path983" />
              <path
                 class="cls-7"
                 d="m 670.17,1338.27 h 21.94 v 104.56 h -21.94 v -17.69 c -6.72,12.09 -21.05,20.37 -37.17,20.37 -27.32,0 -50.82,-22.84 -50.82,-55.08 0,-32.24 22.17,-54.85 51.72,-54.85 15.22,0 29.55,6.49 36.27,18.36 z m -0.22,52.17 c 0,-20.15 -16.79,-34.26 -33.58,-34.26 -17.91,0 -32.02,15.67 -32.02,34.26 0,18.59 14.1,34.48 32.46,34.48 18.36,0 33.14,-14.78 33.14,-34.48 z"
                 id="path985" />
              <path
                 class="cls-7"
                 d="m 890.03,1383.05 v 59.78 h -22.17 v -58.66 c 0,-17.02 -8.96,-27.54 -23.06,-27.54 -17.24,-0.22 -26.2,12.09 -26.2,34.03 v 52.17 h -22.17 v -58.66 c 0,-17.02 -8.96,-27.54 -21.94,-27.54 -13.66,0 -27.54,8.73 -27.54,30 v 56.2 h -21.94 v -104.56 h 21.94 v 16.34 c 4.7,-11.64 18.58,-19.03 32.69,-19.03 15.22,0 27.99,8.06 34.26,21.94 8.96,-18.14 25.3,-21.94 35.82,-21.94 26.2,0 40.3,17.69 40.3,47.46 z"
                 id="path987" />
              <path
                 class="cls-7"
                 d="m 921.38,1442.83 v -104.56 h 21.94 v 104.56 z"
                 id="path989" />
              <path
                 class="cls-7"
                 d="m 969.29,1390.44 c 0,-33.14 26.2,-54.85 56.42,-54.85 17.02,0 31.57,6.94 40.75,17.91 l -14.55,13.66 c -6.04,-6.72 -15.22,-10.97 -25.75,-10.97 -19.48,0 -34.93,14.33 -34.93,34.26 0,19.93 15.45,34.48 34.93,34.48 10.52,0 19.7,-4.25 25.75,-10.97 l 14.55,13.66 c -9.18,10.97 -23.73,17.91 -40.75,17.91 -30.23,0 -56.42,-21.94 -56.42,-55.08 z"
                 id="path991" />
              <path
                 class="cls-7"
                 d="m 1082.58,1411.48 h 20.37 c 0,8.28 7.39,15.45 19.25,15.45 11.86,0 19.48,-6.04 19.48,-13.88 0,-6.94 -5.6,-10.52 -13.43,-12.31 l -14.11,-3.36 c -19.48,-5.15 -28.43,-15.22 -28.43,-30.67 0,-17.02 15.45,-31.12 37.17,-31.12 17.91,0 37.17,9.4 37.17,31.34 H 1139 c 0,-7.61 -7.84,-12.76 -15.67,-12.76 -9.18,0 -15.45,6.04 -15.45,13.21 0,6.49 6.04,10.08 12.54,11.64 l 15.9,3.81 c 22.39,5.6 27.31,19.48 27.31,30.67 0,19.93 -19.7,32.02 -41.2,32.02 -19.48,0 -39.4,-12.09 -39.85,-34.03 z"
                 id="path993" />
            </g>
            <g
               id="g1005">
              <path
                 class="cls-5"
                 d="m 425.48,1201.51 v 17.91 l -61.57,66.05 h 61.57 v 20.6 h -92.47 v -17.91 l 60.45,-66.05 h -56.87 v -20.6 z"
                 id="path997" />
              <path
                 class="cls-5"
                 d="M 550.19,1262.63 H 466.9 c 2.91,17.02 15.45,25.75 32.24,25.75 12.31,0 23.73,-5.6 29.55,-15.22 l 17.46,8.73 c -9.18,17.46 -27.99,26.87 -47.91,26.87 -30.23,0 -53.96,-22.17 -53.96,-55.3 0,-33.13 24.18,-54.63 53.96,-54.63 29.78,0 52.39,21.49 52.39,54.41 0,2.91 -0.22,6.04 -0.45,9.4 z m -21.5,-17.69 c -2.24,-16.34 -14.1,-25.75 -30.23,-25.75 -16.13,0 -28.21,8.28 -31.34,25.75 z"
                 id="path999" />
              <path
                 class="cls-5"
                 d="m 705.12,1201.51 h 23.73 l -38.29,104.56 h -18.58 l -27.09,-75 -26.2,75 h -18.14 l -39.63,-104.56 h 23.73 l 25.08,71.42 24.85,-71.42 h 20.6 l 25.08,71.42 24.85,-71.42 z"
                 id="path1001" />
              <path
                 class="cls-5"
                 d="m 739.6,1253.67 c 0,-33.14 25.08,-54.85 54.85,-54.85 29.77,0 55.08,21.72 55.08,54.85 0,33.13 -25.3,55.08 -55.08,55.08 -29.78,0 -54.85,-21.94 -54.85,-55.08 z m 87.98,0 c 0,-20.15 -15.22,-34.26 -33.14,-34.26 -17.92,0 -32.91,14.11 -32.91,34.26 0,20.15 15,34.48 32.91,34.48 17.91,0 33.14,-14.11 33.14,-34.48 z"
                 id="path1003" />
            </g>
          </g>
          <g
             id="g1099">
            <path
               class="cls-7"
               d="m 655.5,1142.2 c 3.84,-2 8.58,-0.5 10.58,3.34 2,3.84 0.5,8.58 -3.34,10.58 -3.84,2 -8.58,0.5 -10.58,-3.34 -2,-3.84 -0.5,-8.58 3.34,-10.58 z"
               id="path1009" />
            <path
               class="cls-9"
               d="m 667.71,1098.87 c 4.43,-2.31 9.9,-0.58 12.2,3.85 2.31,4.43 0.58,9.9 -3.85,12.2 -4.43,2.31 -9.9,0.58 -12.2,-3.85 -2.31,-4.43 -0.58,-9.9 3.85,-12.2 z"
               id="path1011" />
            <circle
               class="cls-7"
               cx="697.03003"
               cy="1070.6"
               r="10.26"
               id="circle1013" />
            <path
               class="cls-7"
               d="m 726.92,1033.71 c 5.62,-2.92 12.54,-0.74 15.46,4.88 2.92,5.62 0.74,12.54 -4.88,15.46 -5.62,2.92 -12.54,0.74 -15.46,-4.88 -2.92,-5.62 -0.74,-12.54 4.88,-15.46 z"
               id="path1015" />
            <path
               class="cls-7"
               d="m 768,1018.01 c 6.25,-3.25 13.96,-0.82 17.21,5.43 3.25,6.25 0.82,13.96 -5.43,17.21 -6.25,3.25 -13.96,0.82 -17.21,-5.43 -3.25,-6.25 -0.82,-13.96 5.43,-17.21 z"
               id="path1017" />
            <path
               class="cls-7"
               d="m 811.42,1015.66 c 7.01,-3.64 15.64,-0.92 19.28,6.09 3.64,7.01 0.92,15.64 -6.09,19.28 -7.01,3.64 -15.64,0.92 -19.28,-6.09 -3.64,-7.01 -0.92,-15.64 6.09,-19.28 z"
               id="path1019" />
            <path
               class="cls-7"
               d="m 853.1,1027.28 c 7.63,-3.97 17.03,-1 21,6.63 3.97,7.63 1,17.03 -6.63,21 -7.63,3.97 -17.03,1 -21,-6.63 -3.97,-7.63 -1,-17.03 6.63,-21 z"
               id="path1021" />
            <circle
               class="cls-7"
               cx="896.59003"
               cy="1066.23"
               r="13.44"
               transform="rotate(-27.48,896.45715,1066.1334)"
               id="circle1023" />
            <path
               class="cls-7"
               d="m 611.05,1148.66 c 1.37,-0.71 3.06,-0.18 3.77,1.19 0.71,1.37 0.18,3.06 -1.19,3.77 -1.37,0.71 -3.06,0.18 -3.77,-1.19 -0.71,-1.37 -0.18,-3.06 1.19,-3.77 z"
               id="path1025" />
            <circle
               class="cls-7"
               cx="620.81"
               cy="1110.05"
               r="3.96"
               id="circle1027" />
            <path
               class="cls-7"
               d="m 635.92,1067.38 c 2.48,-1.29 5.54,-0.32 6.83,2.16 1.29,2.48 0.32,5.54 -2.16,6.83 -2.48,1.29 -5.54,0.32 -6.83,-2.16 -1.29,-2.48 -0.32,-5.54 2.16,-6.83 z"
               id="path1029" />
            <path
               class="cls-7"
               d="m 660.88,1033.06 c 3.02,-1.57 6.74,-0.4 8.31,2.62 1.57,3.02 0.4,6.74 -2.62,8.31 -3.02,1.57 -6.74,0.4 -8.31,-2.62 -1.57,-3.02 -0.4,-6.74 2.62,-8.31 z"
               id="path1031" />
            <path
               class="cls-7"
               d="m 692.59,1005.21 c 3.56,-1.85 7.95,-0.47 9.8,3.09 1.85,3.56 0.47,7.95 -3.09,9.8 -3.56,1.85 -7.95,0.47 -9.8,-3.09 -1.85,-3.56 -0.47,-7.95 3.09,-9.8 z"
               id="path1033" />
            <path
               class="cls-7"
               d="m 729.57,985.39 c 4.01,-2.09 8.96,-0.53 11.04,3.49 2.09,4.01 0.53,8.96 -3.49,11.04 -4.02,2.08 -8.96,0.53 -11.04,-3.49 -2.09,-4.01 -0.53,-8.96 3.49,-11.04 z"
               id="path1035" />
            <path
               class="cls-2"
               d="m 769.88,974.47 c 4.43,-2.31 9.9,-0.58 12.2,3.85 2.31,4.43 0.58,9.9 -3.85,12.2 -4.43,2.31 -9.9,0.58 -12.2,-3.85 -2.31,-4.43 -0.58,-9.9 3.85,-12.2 z"
               id="path1037" />
            <path
               class="cls-7"
               d="m 811.45,972.77 c 4.86,-2.53 10.84,-0.64 13.37,4.22 2.53,4.86 0.64,10.84 -4.22,13.37 -4.86,2.53 -10.84,0.64 -13.37,-4.22 -2.53,-4.86 -0.64,-10.84 4.22,-13.37 z"
               id="path1039" />
            <circle
               class="cls-7"
               cx="857.12"
               cy="990.02002"
               r="10.77"
               id="circle1041" />
            <path
               class="cls-7"
               d="m 889.93,997.14 c 5.7,-2.96 12.73,-0.75 15.69,4.95 2.96,5.7 0.75,12.73 -4.95,15.69 -5.7,2.96 -12.73,0.75 -15.69,-4.95 -2.96,-5.7 -0.75,-12.73 4.95,-15.69 z"
               id="path1043" />
            <path
               class="cls-7"
               d="m 922.86,1021.77 c 6.16,-3.2 13.74,-0.81 16.94,5.35 3.2,6.16 0.81,13.74 -5.35,16.94 -6.16,3.2 -13.74,0.81 -16.94,-5.35 -3.2,-6.16 -0.81,-13.74 5.35,-16.94 z"
               id="path1045" />
            <circle
               class="cls-7"
               cx="955.53003"
               cy="1065.12"
               r="13.58"
               transform="rotate(-27.48,955.39197,1065.0271)"
               id="circle1047" />
            <path
               class="cls-7"
               d="m 967.72,1089.41 c 7.24,-3.77 16.17,-0.95 19.93,6.29 3.77,7.24 0.95,16.17 -6.29,19.93 -7.24,3.77 -16.17,0.95 -19.93,-6.29 -3.77,-7.24 -0.95,-16.17 6.29,-19.93 z"
               id="path1049" />
            <path
               class="cls-2"
               d="m 979.99,1129.28 c 7.24,-3.77 16.17,-0.95 19.93,6.29 3.77,7.24 0.95,16.17 -6.29,19.93 -7.24,3.77 -16.17,0.95 -19.93,-6.29 -3.77,-7.24 -0.95,-16.17 6.29,-19.93 z"
               id="path1051" />
            <path
               class="cls-7"
               d="m 978.46,1171.34 c 7.65,-3.98 17.09,-1 21.07,6.65 3.98,7.65 1,17.09 -6.65,21.07 -7.65,3.98 -17.09,1 -21.07,-6.65 -3.98,-7.65 -1,-17.09 6.65,-21.07 z"
               id="path1053" />
            <path
               class="cls-7"
               d="m 970.4,1213.2 c 7.23,-3.76 16.14,-0.95 19.9,6.28 3.76,7.23 0.95,16.14 -6.28,19.9 -7.23,3.76 -16.14,0.95 -19.9,-6.28 -3.76,-7.23 -0.95,-16.14 6.28,-19.9 z"
               id="path1055" />
            <path
               class="cls-7"
               d="m 953.6,1252.57 c 6.58,-3.42 14.69,-0.86 18.11,5.72 3.42,6.58 0.86,14.69 -5.72,18.11 -6.58,3.42 -14.69,0.86 -18.11,-5.72 -3.42,-6.58 -0.86,-14.69 5.72,-18.11 z"
               id="path1057" />
            <path
               class="cls-12"
               d="m 925.96,1287.56 c 7.26,-3.78 16.22,-0.95 19.99,6.31 3.78,7.26 0.95,16.22 -6.31,19.99 -7.26,3.78 -16.22,0.95 -19.99,-6.31 -3.78,-7.26 -0.95,-16.22 6.31,-19.99 z"
               id="path1059" />
            <path
               class="cls-7"
               d="m 591.08,1065.15 c 1.21,-0.63 2.7,-0.16 3.33,1.05 0.63,1.21 0.16,2.7 -1.05,3.33 -1.21,0.63 -2.7,0.16 -3.33,-1.05 -0.63,-1.21 -0.16,-2.7 1.05,-3.33 z"
               id="path1061" />
            <circle
               class="cls-7"
               cx="613.14001"
               cy="1032.03"
               r="3.4100001"
               id="circle1063" />
            <path
               class="cls-12"
               d="m 637.95,997.15 c 2.08,-1.08 4.65,-0.27 5.74,1.81 1.08,2.08 0.27,4.65 -1.81,5.74 -2.08,1.08 -4.65,0.27 -5.74,-1.81 -1.09,-2.08 -0.27,-4.65 1.81,-5.74 z"
               id="path1065" />
            <circle
               class="cls-7"
               cx="671.66998"
               cy="974.96002"
               r="5.0999999"
               id="circle1067" />
            <path
               class="cls-7"
               d="m 704.7,949.6 c 2.91,-1.51 6.5,-0.38 8.01,2.53 1.51,2.91 0.38,6.5 -2.53,8.01 -2.91,1.51 -6.5,0.38 -8.01,-2.53 -1.51,-2.91 -0.38,-6.5 2.53,-8.01 z"
               id="path1069" />
            <path
               class="cls-7"
               d="m 743.02,935.25 c 3.32,-1.73 7.42,-0.44 9.15,2.89 1.73,3.32 0.44,7.42 -2.89,9.15 -3.32,1.73 -7.42,0.44 -9.15,-2.89 -1.73,-3.32 -0.44,-7.42 2.89,-9.15 z"
               id="path1071" />
            <path
               class="cls-7"
               d="m 783.14,927.87 c 3.71,-1.93 8.29,-0.49 10.22,3.23 1.93,3.71 0.49,8.29 -3.23,10.22 -3.71,1.93 -8.29,0.49 -10.22,-3.23 -1.93,-3.71 -0.49,-8.29 3.23,-10.22 z"
               id="path1073" />
            <path
               class="cls-7"
               d="m 823.85,927.79 c 4.04,-2.1 9.01,-0.53 11.11,3.51 2.1,4.04 0.53,9.01 -3.51,11.11 -4.04,2.1 -9.01,0.53 -11.11,-3.51 -2.1,-4.04 -0.53,-9.01 3.51,-11.11 z"
               id="path1075" />
            <path
               class="cls-4"
               d="m 863.86,934.85 c 4.36,-2.27 9.73,-0.57 12,3.79 2.27,4.36 0.57,9.73 -3.79,12 -4.36,2.27 -9.73,0.57 -12,-3.79 -2.27,-4.36 -0.57,-9.73 3.79,-12 z"
               id="path1077" />
            <path
               class="cls-7"
               d="m 901.96,948.71 c 4.68,-2.43 10.45,-0.61 12.89,4.07 2.43,4.68 0.61,10.45 -4.07,12.89 -4.68,2.43 -10.45,0.61 -12.89,-4.07 -2.43,-4.68 -0.61,-10.45 4.07,-12.89 z"
               id="path1079" />
            <circle
               class="cls-7"
               cx="941.67999"
               cy="978.09998"
               r="10.21"
               id="circle1081" />
            <path
               class="cls-7"
               d="m 967.77,995.21 c 5.33,-2.77 11.89,-0.7 14.66,4.63 2.77,5.33 0.7,11.89 -4.63,14.66 -5.33,2.77 -11.89,0.7 -14.66,-4.63 -2.77,-5.33 -0.7,-11.89 4.63,-14.66 z"
               id="path1083" />
            <path
               class="cls-7"
               d="m 993.44,1026.38 c 5.65,-2.94 12.61,-0.74 15.55,4.91 2.94,5.65 0.74,12.61 -4.91,15.55 -5.65,2.94 -12.61,0.74 -15.55,-4.91 -2.94,-5.65 -0.74,-12.61 4.91,-15.55 z"
               id="path1085" />
            <path
               class="cls-9"
               d="m 1013.21,1061.52 c 6,-3.12 13.39,-0.79 16.51,5.21 3.12,6 0.79,13.39 -5.21,16.51 -6,3.12 -13.39,0.79 -16.51,-5.21 -3.12,-6 -0.79,-13.39 5.21,-16.51 z"
               id="path1087" />
            <path
               class="cls-7"
               d="m 1026.48,1099.55 c 6.37,-3.31 14.22,-0.83 17.54,5.54 3.31,6.37 0.83,14.22 -5.54,17.54 -6.37,3.31 -14.22,0.83 -17.54,-5.54 -3.31,-6.37 -0.83,-14.22 5.54,-17.54 z"
               id="path1089" />
            <path
               class="cls-7"
               d="m 1032.76,1139.26 c 6.8,-3.54 15.17,-0.89 18.71,5.91 3.54,6.8 0.89,15.17 -5.91,18.71 -6.8,3.54 -15.17,0.89 -18.71,-5.91 -3.54,-6.8 -0.89,-15.17 5.91,-18.71 z"
               id="path1091" />
            <path
               class="cls-7"
               d="m 1031.85,1179.49 c 7.23,-3.76 16.15,-0.95 19.91,6.29 3.76,7.23 0.95,16.15 -6.29,19.91 -7.23,3.76 -16.15,0.95 -19.91,-6.29 -3.76,-7.23 -0.95,-16.15 6.29,-19.91 z"
               id="path1093" />
            <path
               class="cls-7"
               d="m 1023.97,1219.32 c 7.5,-3.9 16.74,-0.98 20.64,6.52 3.9,7.5 0.98,16.74 -6.52,20.64 -7.5,3.9 -16.74,0.98 -20.64,-6.52 -3.9,-7.5 -0.98,-16.74 6.52,-20.64 z"
               id="path1095" />
            <path
               class="cls-7"
               d="m 1009.49,1257.66 c 7.54,-3.92 16.83,-0.99 20.75,6.55 3.92,7.54 0.99,16.83 -6.55,20.75 -7.54,3.92 -16.83,0.99 -20.75,-6.55 -3.92,-7.54 -0.99,-16.83 6.55,-20.75 z"
               id="path1097" />
          </g>
        </g>
        <g
           id="g1225">
          <g
             id="g1131">
            <g
               id="g1119">
              <path
                 class="cls-7"
                 d="m 1790.48,354.54 h 21.94 v 161.43 h -21.94 V 500.3 c -6.94,11.87 -21.94,18.36 -36.05,18.36 -28.43,0 -51.94,-21.94 -51.94,-55.08 0,-33.14 23.51,-54.85 51.72,-54.85 14.78,0 29.33,6.27 36.27,18.13 z m -0.23,108.81 c 0,-21.05 -17.24,-34.03 -33.36,-34.03 -17.91,0 -32.46,14.33 -32.46,34.03 0,19.7 14.55,34.7 32.46,34.7 17.91,0 33.36,-13.66 33.36,-34.7 z"
                 id="path1103" />
              <path
                 class="cls-7"
                 d="m 1915.63,411.41 h 23.73 l -64.93,155.38 h -23.29 l 22.61,-55.53 -41.87,-99.86 h 23.73 l 30,72.76 30,-72.76 z"
                 id="path1105" />
              <path
                 class="cls-7"
                 d="m 2055.78,456.19 v 59.78 h -21.94 v -58.44 c 0,-17.02 -10.3,-27.32 -23.73,-27.32 -13.43,0 -30.23,7.84 -30.23,29.55 v 56.2 h -21.94 V 411.4 h 21.94 v 16.12 c 6.05,-12.99 22.84,-18.81 34.03,-18.81 26.42,0 42.09,17.69 41.87,47.46 z"
                 id="path1107" />
              <path
                 class="cls-7"
                 d="m 2168.4,411.41 h 21.94 v 104.56 h -21.94 v -17.69 c -6.72,12.09 -21.05,20.37 -37.17,20.37 -27.32,0 -50.82,-22.84 -50.82,-55.08 0,-32.24 22.17,-54.85 51.72,-54.85 15.22,0 29.55,6.49 36.27,18.36 z m -0.22,52.16 c 0,-20.15 -16.79,-34.26 -33.58,-34.26 -17.91,0 -32.02,15.67 -32.02,34.26 0,18.59 14.1,34.48 32.46,34.48 18.36,0 33.14,-14.78 33.14,-34.48 z"
                 id="path1109" />
              <path
                 class="cls-7"
                 d="m 2388.26,456.19 v 59.78 h -22.17 v -58.66 c 0,-17.02 -8.96,-27.54 -23.06,-27.54 -17.24,-0.22 -26.2,12.09 -26.2,34.03 v 52.17 h -22.17 v -58.66 c 0,-17.02 -8.96,-27.54 -21.94,-27.54 -13.66,0 -27.54,8.73 -27.54,30 v 56.2 h -21.94 V 411.41 h 21.94 v 16.34 c 4.7,-11.64 18.58,-19.03 32.69,-19.03 15.22,0 27.99,8.06 34.26,21.94 8.96,-18.14 25.3,-21.94 35.82,-21.94 26.2,0 40.3,17.69 40.3,47.46 z"
                 id="path1111" />
              <path
                 class="cls-7"
                 d="M 2419.6,515.96 V 411.4 h 21.94 v 104.56 z"
                 id="path1113" />
              <path
                 class="cls-7"
                 d="m 2467.51,463.57 c 0,-33.14 26.2,-54.85 56.42,-54.85 17.02,0 31.57,6.94 40.75,17.91 l -14.55,13.66 c -6.04,-6.72 -15.22,-10.97 -25.75,-10.97 -19.48,0 -34.93,14.33 -34.93,34.26 0,19.93 15.45,34.48 34.93,34.48 10.52,0 19.7,-4.25 25.75,-10.97 l 14.55,13.66 c -9.18,10.97 -23.73,17.91 -40.75,17.91 -30.23,0 -56.42,-21.94 -56.42,-55.08 z"
                 id="path1115" />
              <path
                 class="cls-7"
                 d="m 2580.8,484.62 h 20.37 c 0,8.28 7.39,15.45 19.25,15.45 11.86,0 19.48,-6.04 19.48,-13.88 0,-6.94 -5.6,-10.52 -13.43,-12.31 l -14.11,-3.36 c -19.48,-5.15 -28.43,-15.22 -28.43,-30.67 0,-17.02 15.45,-31.12 37.17,-31.12 17.91,0 37.17,9.4 37.17,31.34 h -21.05 c 0,-7.61 -7.84,-12.76 -15.67,-12.76 -9.18,0 -15.45,6.04 -15.45,13.21 0,6.49 6.04,10.08 12.54,11.64 l 15.9,3.81 c 22.39,5.6 27.31,19.48 27.31,30.67 0,19.93 -19.7,32.02 -41.2,32.02 -19.48,0 -39.4,-12.09 -39.85,-34.03 z"
                 id="path1117" />
            </g>
            <g
               id="g1129">
              <path
                 class="cls-5"
                 d="m 1923.7,274.65 v 17.91 l -61.57,66.05 h 61.57 v 20.6 h -92.47 V 361.3 l 60.45,-66.05 h -56.87 v -20.6 z"
                 id="path1121" />
              <path
                 class="cls-5"
                 d="m 2048.41,335.77 h -83.29 c 2.91,17.02 15.45,25.75 32.24,25.75 12.31,0 23.73,-5.6 29.55,-15.22 l 17.46,8.73 c -9.18,17.46 -27.99,26.87 -47.91,26.87 -30.23,0 -53.96,-22.17 -53.96,-55.3 0,-33.13 24.18,-54.63 53.96,-54.63 29.78,0 52.39,21.49 52.39,54.41 0,2.91 -0.22,6.04 -0.45,9.4 z m -21.49,-17.69 c -2.24,-16.34 -14.1,-25.75 -30.23,-25.75 -16.13,0 -28.21,8.28 -31.34,25.75 z"
                 id="path1123" />
              <path
                 class="cls-5"
                 d="m 2203.34,274.65 h 23.73 l -38.29,104.56 h -18.58 l -27.09,-75 -26.2,75 h -18.14 l -39.63,-104.56 h 23.73 l 25.08,71.42 24.85,-71.42 h 20.6 l 25.08,71.42 24.85,-71.42 z"
                 id="path1125" />
              <path
                 class="cls-5"
                 d="m 2237.82,326.81 c 0,-33.14 25.08,-54.85 54.85,-54.85 29.77,0 55.08,21.72 55.08,54.85 0,33.13 -25.3,55.08 -55.08,55.08 -29.78,0 -54.85,-21.94 -54.85,-55.08 z m 87.99,0 c 0,-20.15 -15.22,-34.26 -33.14,-34.26 -17.92,0 -32.91,14.11 -32.91,34.26 0,20.15 15,34.48 32.91,34.48 17.91,0 33.14,-14.11 33.14,-34.48 z"
                 id="path1127" />
            </g>
          </g>
          <g
             id="g1223">
            <path
               class="cls-7"
               d="m 2153.73,215.34 c 3.84,-2 8.58,-0.5 10.58,3.34 2,3.84 0.5,8.58 -3.34,10.58 -3.84,2 -8.58,0.5 -10.58,-3.34 -2,-3.84 -0.5,-8.58 3.34,-10.58 z"
               id="path1133" />
            <path
               class="cls-9"
               d="m 2165.94,172.01 c 4.43,-2.31 9.9,-0.58 12.2,3.85 2.31,4.43 0.58,9.9 -3.85,12.2 -4.43,2.31 -9.9,0.58 -12.2,-3.85 -2.31,-4.43 -0.58,-9.9 3.85,-12.2 z"
               id="path1135" />
            <circle
               class="cls-7"
               cx="2195.25"
               cy="143.74001"
               r="10.26"
               id="circle1137" />
            <path
               class="cls-7"
               d="m 2225.15,106.85 c 5.62,-2.92 12.54,-0.74 15.46,4.88 2.92,5.62 0.74,12.54 -4.88,15.46 -5.62,2.92 -12.54,0.74 -15.46,-4.88 -2.92,-5.62 -0.74,-12.54 4.88,-15.46 z"
               id="path1139" />
            <path
               class="cls-7"
               d="m 2266.23,91.15 c 6.25,-3.25 13.96,-0.82 17.21,5.43 3.25,6.25 0.82,13.96 -5.43,17.21 -6.25,3.25 -13.96,0.82 -17.21,-5.43 -3.25,-6.25 -0.82,-13.96 5.43,-17.21 z"
               id="path1141" />
            <path
               class="cls-7"
               d="m 2309.64,88.8 c 7.01,-3.64 15.64,-0.92 19.28,6.09 3.64,7.01 0.92,15.64 -6.09,19.28 -7.01,3.64 -15.64,0.92 -19.28,-6.09 -3.64,-7.01 -0.92,-15.64 6.09,-19.28 z"
               id="path1143" />
            <path
               class="cls-7"
               d="m 2351.33,100.42 c 7.63,-3.97 17.03,-1 21,6.63 3.97,7.63 1,17.03 -6.63,21 -7.63,3.97 -17.03,1 -21,-6.63 -3.97,-7.63 -1,-17.03 6.63,-21 z"
               id="path1145" />
            <circle
               class="cls-7"
               cx="2394.8201"
               cy="139.37"
               r="13.44"
               transform="rotate(-27.48,2394.5525,139.41749)"
               id="circle1147" />
            <path
               class="cls-7"
               d="m 2109.27,221.8 c 1.37,-0.71 3.06,-0.18 3.77,1.19 0.71,1.37 0.18,3.06 -1.19,3.77 -1.37,0.71 -3.06,0.18 -3.77,-1.19 -0.71,-1.37 -0.18,-3.06 1.19,-3.77 z"
               id="path1149" />
            <circle
               class="cls-7"
               cx="2119.04"
               cy="183.19"
               r="3.96"
               id="circle1151" />
            <path
               class="cls-7"
               d="m 2134.15,140.52 c 2.48,-1.29 5.54,-0.32 6.83,2.16 1.29,2.48 0.32,5.54 -2.16,6.83 -2.48,1.29 -5.54,0.32 -6.83,-2.16 -1.29,-2.48 -0.32,-5.54 2.16,-6.83 z"
               id="path1153" />
            <path
               class="cls-7"
               d="m 2159.1,106.19 c 3.02,-1.57 6.74,-0.4 8.31,2.62 1.57,3.02 0.4,6.74 -2.62,8.31 -3.02,1.57 -6.74,0.4 -8.31,-2.62 -1.57,-3.02 -0.4,-6.74 2.62,-8.31 z"
               id="path1155" />
            <path
               class="cls-7"
               d="m 2190.81,78.35 c 3.56,-1.85 7.95,-0.47 9.8,3.09 1.85,3.56 0.47,7.95 -3.09,9.8 -3.56,1.85 -7.95,0.47 -9.8,-3.09 -1.85,-3.56 -0.47,-7.95 3.09,-9.8 z"
               id="path1157" />
            <path
               class="cls-7"
               d="m 2227.79,58.53 c 4.01,-2.09 8.96,-0.53 11.04,3.49 2.09,4.01 0.53,8.96 -3.49,11.04 -4.02,2.08 -8.96,0.53 -11.04,-3.49 -2.09,-4.01 -0.53,-8.96 3.49,-11.04 z"
               id="path1159" />
            <path
               class="cls-2"
               d="m 2268.1,47.6 c 4.43,-2.31 9.9,-0.58 12.2,3.85 2.31,4.43 0.58,9.9 -3.85,12.2 -4.43,2.31 -9.9,0.58 -12.2,-3.85 -2.31,-4.43 -0.58,-9.9 3.85,-12.2 z"
               id="path1161" />
            <path
               class="cls-7"
               d="m 2309.68,45.91 c 4.86,-2.53 10.84,-0.64 13.37,4.22 2.53,4.86 0.64,10.84 -4.22,13.37 -4.86,2.53 -10.84,0.64 -13.37,-4.22 -2.53,-4.86 -0.64,-10.84 4.22,-13.37 z"
               id="path1163" />
            <circle
               class="cls-7"
               cx="2355.3501"
               cy="63.16"
               r="10.77"
               id="circle1165" />
            <path
               class="cls-7"
               d="m 2388.16,70.27 c 5.7,-2.96 12.73,-0.75 15.69,4.95 2.96,5.7 0.75,12.73 -4.95,15.69 -5.7,2.96 -12.73,0.75 -15.69,-4.95 -2.96,-5.7 -0.75,-12.73 4.95,-15.69 z"
               id="path1167" />
            <path
               class="cls-7"
               d="m 2421.08,94.9 c 6.16,-3.2 13.74,-0.81 16.94,5.35 3.2,6.16 0.81,13.74 -5.35,16.94 -6.16,3.2 -13.74,0.81 -16.94,-5.35 -3.2,-6.16 -0.81,-13.74 5.35,-16.94 z"
               id="path1169" />
            <circle
               class="cls-7"
               cx="2453.76"
               cy="138.25999"
               r="13.58"
               transform="rotate(-27.48,2453.4873,138.31117)"
               id="circle1171" />
            <path
               class="cls-7"
               d="m 2465.95,162.54 c 7.24,-3.77 16.17,-0.95 19.93,6.29 3.77,7.24 0.95,16.17 -6.29,19.93 -7.24,3.77 -16.17,0.95 -19.93,-6.29 -3.77,-7.24 -0.95,-16.17 6.29,-19.93 z"
               id="path1173" />
            <path
               class="cls-2"
               d="m 2478.21,202.41 c 7.24,-3.77 16.17,-0.95 19.93,6.29 3.77,7.24 0.95,16.17 -6.29,19.93 -7.24,3.77 -16.17,0.95 -19.93,-6.29 -3.77,-7.24 -0.95,-16.17 6.29,-19.93 z"
               id="path1175" />
            <path
               class="cls-7"
               d="m 2476.68,244.47 c 7.65,-3.98 17.09,-1 21.07,6.65 3.98,7.65 1,17.09 -6.65,21.07 -7.65,3.98 -17.09,1 -21.07,-6.65 -3.98,-7.65 -1,-17.09 6.65,-21.07 z"
               id="path1177" />
            <path
               class="cls-7"
               d="m 2468.63,286.34 c 7.23,-3.76 16.14,-0.95 19.9,6.28 3.76,7.23 0.95,16.14 -6.28,19.9 -7.23,3.76 -16.14,0.95 -19.9,-6.28 -3.76,-7.23 -0.95,-16.14 6.28,-19.9 z"
               id="path1179" />
            <path
               class="cls-7"
               d="m 2451.82,325.7 c 6.58,-3.42 14.69,-0.86 18.11,5.72 3.42,6.58 0.86,14.69 -5.72,18.11 -6.58,3.42 -14.69,0.86 -18.11,-5.72 -3.42,-6.58 -0.86,-14.69 5.72,-18.11 z"
               id="path1181" />
            <path
               class="cls-12"
               d="m 2424.19,360.69 c 7.26,-3.78 16.22,-0.95 19.99,6.31 3.78,7.26 0.95,16.22 -6.31,19.99 -7.26,3.78 -16.22,0.95 -19.99,-6.31 -3.78,-7.26 -0.95,-16.22 6.31,-19.99 z"
               id="path1183" />
            <path
               class="cls-7"
               d="m 2089.31,138.28 c 1.21,-0.63 2.7,-0.16 3.33,1.05 0.63,1.21 0.16,2.7 -1.05,3.33 -1.21,0.63 -2.7,0.16 -3.33,-1.05 -0.63,-1.21 -0.16,-2.7 1.05,-3.33 z"
               id="path1185" />
            <circle
               class="cls-7"
               cx="2111.3701"
               cy="105.17"
               r="3.4100001"
               id="circle1187" />
            <path
               class="cls-12"
               d="m 2136.17,70.29 c 2.08,-1.08 4.65,-0.27 5.74,1.81 1.08,2.08 0.27,4.65 -1.81,5.74 -2.08,1.08 -4.65,0.27 -5.74,-1.81 -1.09,-2.08 -0.27,-4.65 1.81,-5.74 z"
               id="path1189" />
            <circle
               class="cls-7"
               cx="2169.8999"
               cy="48.099998"
               r="5.0999999"
               id="circle1191" />
            <path
               class="cls-7"
               d="m 2202.92,22.74 c 2.91,-1.51 6.5,-0.38 8.01,2.53 1.51,2.91 0.38,6.5 -2.53,8.01 -2.91,1.51 -6.5,0.38 -8.01,-2.53 -1.51,-2.91 -0.38,-6.5 2.53,-8.01 z"
               id="path1193" />
            <path
               class="cls-7"
               d="m 2241.24,8.39 c 3.32,-1.73 7.42,-0.44 9.15,2.89 1.73,3.32 0.44,7.42 -2.89,9.15 -3.32,1.73 -7.42,0.44 -9.15,-2.89 -1.73,-3.32 -0.44,-7.42 2.89,-9.15 z"
               id="path1195" />
            <path
               class="cls-7"
               d="m 2281.36,1.01 c 3.71,-1.93 8.29,-0.49 10.22,3.23 1.93,3.71 0.49,8.29 -3.23,10.22 -3.71,1.93 -8.29,0.49 -10.22,-3.23 -1.93,-3.71 -0.49,-8.29 3.23,-10.22 z"
               id="path1197" />
            <path
               class="cls-7"
               d="m 2322.08,0.93 c 4.04,-2.1 9.01,-0.53 11.11,3.51 2.1,4.04 0.53,9.01 -3.51,11.11 -4.04,2.1 -9.01,0.53 -11.11,-3.51 -2.1,-4.04 -0.53,-9.01 3.51,-11.11 z"
               id="path1199" />
            <path
               class="cls-4"
               d="m 2362.09,7.98 c 4.36,-2.27 9.73,-0.57 12,3.79 2.27,4.36 0.57,9.73 -3.79,12 -4.36,2.27 -9.73,0.57 -12,-3.79 -2.27,-4.36 -0.57,-9.73 3.79,-12 z"
               id="path1201" />
            <path
               class="cls-7"
               d="m 2400.19,21.85 c 4.68,-2.43 10.45,-0.61 12.89,4.07 2.43,4.68 0.61,10.45 -4.07,12.89 -4.68,2.43 -10.45,0.61 -12.89,-4.07 -2.43,-4.68 -0.61,-10.45 4.07,-12.89 z"
               id="path1203" />
            <circle
               class="cls-7"
               cx="2439.9099"
               cy="51.240002"
               r="10.21"
               id="circle1205" />
            <path
               class="cls-7"
               d="m 2466,68.35 c 5.33,-2.77 11.89,-0.7 14.66,4.63 2.77,5.33 0.7,11.89 -4.63,14.66 -5.33,2.77 -11.89,0.7 -14.66,-4.63 -2.77,-5.33 -0.7,-11.89 4.63,-14.66 z"
               id="path1207" />
            <path
               class="cls-7"
               d="m 2491.67,99.52 c 5.65,-2.94 12.61,-0.74 15.55,4.91 2.94,5.65 0.74,12.61 -4.91,15.55 -5.65,2.94 -12.61,0.74 -15.55,-4.91 -2.94,-5.65 -0.74,-12.61 4.91,-15.55 z"
               id="path1209" />
            <path
               class="cls-9"
               d="m 2511.44,134.65 c 6,-3.12 13.39,-0.79 16.51,5.21 3.12,6 0.79,13.39 -5.21,16.51 -6,3.12 -13.39,0.79 -16.51,-5.21 -3.12,-6 -0.79,-13.39 5.21,-16.51 z"
               id="path1211" />
            <path
               class="cls-7"
               d="m 2524.7,172.68 c 6.37,-3.31 14.22,-0.83 17.54,5.54 3.31,6.37 0.83,14.22 -5.54,17.54 -6.37,3.31 -14.22,0.83 -17.54,-5.54 -3.31,-6.37 -0.83,-14.22 5.54,-17.54 z"
               id="path1213" />
            <path
               class="cls-7"
               d="m 2530.98,212.4 c 6.8,-3.54 15.17,-0.89 18.71,5.91 3.54,6.8 0.89,15.17 -5.91,18.71 -6.8,3.54 -15.17,0.89 -18.71,-5.91 -3.54,-6.8 -0.89,-15.17 5.91,-18.71 z"
               id="path1215" />
            <path
               class="cls-7"
               d="m 2530.07,252.63 c 7.23,-3.76 16.15,-0.95 19.91,6.29 3.76,7.23 0.95,16.15 -6.29,19.91 -7.23,3.76 -16.15,0.95 -19.91,-6.29 -3.76,-7.23 -0.95,-16.15 6.29,-19.91 z"
               id="path1217" />
            <path
               class="cls-7"
               d="m 2522.19,292.46 c 7.5,-3.9 16.74,-0.98 20.64,6.52 3.9,7.5 0.98,16.74 -6.52,20.64 -7.5,3.9 -16.74,0.98 -20.64,-6.52 -3.9,-7.5 -0.98,-16.74 6.52,-20.64 z"
               id="path1219" />
            <path
               class="cls-7"
               d="m 2507.72,330.8 c 7.54,-3.92 16.83,-0.99 20.75,6.55 3.92,7.54 0.99,16.83 -6.55,20.75 -7.54,3.92 -16.83,0.99 -20.75,-6.55 -3.92,-7.54 -0.99,-16.83 6.55,-20.75 z"
               id="path1221" />
          </g>
        </g>
        <g
           id="g1349">
          <g
             id="g1255">
            <g
               id="g1243">
              <path
                 class="cls-8"
                 d="m 1773.4,2410.42 h 21.94 v 161.43 h -21.94 v -15.67 c -6.94,11.87 -21.94,18.36 -36.05,18.36 -28.43,0 -51.94,-21.94 -51.94,-55.08 0,-33.14 23.51,-54.85 51.72,-54.85 14.78,0 29.33,6.27 36.27,18.13 z m -0.23,108.82 c 0,-21.05 -17.24,-34.03 -33.36,-34.03 -17.91,0 -32.46,14.33 -32.46,34.03 0,19.7 14.55,34.7 32.46,34.7 17.91,0 33.36,-13.66 33.36,-34.7 z"
                 id="path1227" />
              <path
                 class="cls-8"
                 d="m 1898.55,2467.29 h 23.73 l -64.93,155.38 h -23.29 l 22.61,-55.53 -41.87,-99.86 h 23.73 l 30,72.76 30,-72.76 z"
                 id="path1229" />
              <path
                 class="cls-8"
                 d="m 2038.71,2512.07 v 59.78 h -21.94 v -58.44 c 0,-17.02 -10.3,-27.32 -23.73,-27.32 -13.43,0 -30.23,7.84 -30.23,29.55 v 56.2 h -21.94 v -104.56 h 21.94 v 16.12 c 6.05,-12.99 22.84,-18.81 34.03,-18.81 26.42,0 42.09,17.69 41.87,47.46 z"
                 id="path1231" />
              <path
                 class="cls-8"
                 d="m 2151.32,2467.29 h 21.94 v 104.56 h -21.94 v -17.69 c -6.72,12.09 -21.05,20.37 -37.17,20.37 -27.32,0 -50.82,-22.84 -50.82,-55.08 0,-32.24 22.17,-54.85 51.72,-54.85 15.22,0 29.55,6.49 36.27,18.36 z m -0.22,52.17 c 0,-20.15 -16.79,-34.26 -33.58,-34.26 -17.91,0 -32.02,15.67 -32.02,34.26 0,18.59 14.1,34.48 32.46,34.48 18.36,0 33.14,-14.78 33.14,-34.48 z"
                 id="path1233" />
              <path
                 class="cls-8"
                 d="m 2371.18,2512.07 v 59.78 h -22.17 v -58.66 c 0,-17.02 -8.96,-27.54 -23.06,-27.54 -17.24,-0.22 -26.2,12.09 -26.2,34.03 v 52.17 h -22.17 v -58.66 c 0,-17.02 -8.96,-27.54 -21.94,-27.54 -13.66,0 -27.54,8.73 -27.54,30 v 56.2 h -21.94 v -104.56 h 21.94 v 16.34 c 4.7,-11.64 18.58,-19.03 32.69,-19.03 15.22,0 27.99,8.06 34.26,21.94 8.96,-18.14 25.3,-21.94 35.82,-21.94 26.2,0 40.3,17.69 40.3,47.46 z"
                 id="path1235" />
              <path
                 class="cls-8"
                 d="m 2402.53,2571.85 v -104.56 h 21.94 v 104.56 z"
                 id="path1237" />
              <path
                 class="cls-8"
                 d="m 2450.44,2519.46 c 0,-33.14 26.2,-54.85 56.42,-54.85 17.02,0 31.57,6.94 40.75,17.91 l -14.55,13.66 c -6.04,-6.72 -15.22,-10.97 -25.75,-10.97 -19.48,0 -34.93,14.33 -34.93,34.26 0,19.93 15.45,34.48 34.93,34.48 10.52,0 19.7,-4.25 25.75,-10.97 l 14.55,13.66 c -9.18,10.97 -23.73,17.91 -40.75,17.91 -30.23,0 -56.42,-21.94 -56.42,-55.08 z"
                 id="path1239" />
              <path
                 class="cls-8"
                 d="m 2563.72,2540.51 h 20.37 c 0,8.28 7.39,15.45 19.25,15.45 11.86,0 19.48,-6.04 19.48,-13.88 0,-6.94 -5.6,-10.52 -13.43,-12.31 l -14.11,-3.36 c -19.48,-5.15 -28.43,-15.22 -28.43,-30.67 0,-17.02 15.45,-31.12 37.17,-31.12 17.91,0 37.17,9.4 37.17,31.34 h -21.05 c 0,-7.61 -7.84,-12.76 -15.67,-12.76 -9.18,0 -15.45,6.04 -15.45,13.21 0,6.49 6.04,10.08 12.54,11.64 l 15.9,3.81 c 22.39,5.6 27.31,19.48 27.31,30.67 0,19.93 -19.7,32.02 -41.2,32.02 -19.48,0 -39.4,-12.09 -39.85,-34.03 z"
                 id="path1241" />
            </g>
            <g
               id="g1253">
              <path
                 class="cls-5"
                 d="m 1906.62,2330.53 v 17.91 l -61.57,66.05 h 61.57 v 20.6 h -92.47 v -17.91 l 60.45,-66.05 h -56.87 v -20.6 z"
                 id="path1245" />
              <path
                 class="cls-5"
                 d="m 2031.33,2391.65 h -83.29 c 2.91,17.02 15.45,25.75 32.24,25.75 12.31,0 23.73,-5.6 29.55,-15.22 l 17.46,8.73 c -9.18,17.46 -27.99,26.87 -47.91,26.87 -30.23,0 -53.96,-22.17 -53.96,-55.3 0,-33.13 24.18,-54.63 53.96,-54.63 29.78,0 52.39,21.49 52.39,54.41 0,2.91 -0.22,6.04 -0.45,9.4 z m -21.49,-17.68 c -2.24,-16.34 -14.1,-25.75 -30.23,-25.75 -16.13,0 -28.21,8.28 -31.34,25.75 z"
                 id="path1247" />
              <path
                 class="cls-5"
                 d="M 2186.27,2330.53 H 2210 l -38.29,104.56 h -18.58 l -27.09,-75 -26.2,75 h -18.14 l -39.63,-104.56 h 23.73 l 25.08,71.42 24.85,-71.42 h 20.6 l 25.08,71.42 24.85,-71.42 z"
                 id="path1249" />
              <path
                 class="cls-5"
                 d="m 2220.74,2382.7 c 0,-33.14 25.08,-54.85 54.85,-54.85 29.77,0 55.08,21.72 55.08,54.85 0,33.13 -25.3,55.08 -55.08,55.08 -29.78,0 -54.85,-21.94 -54.85,-55.08 z m 87.99,0 c 0,-20.15 -15.22,-34.26 -33.14,-34.26 -17.92,0 -32.91,14.11 -32.91,34.26 0,20.15 15,34.48 32.91,34.48 17.91,0 33.14,-14.11 33.14,-34.48 z"
                 id="path1251" />
            </g>
          </g>
          <g
             id="g1347">
            <path
               class="cls-8"
               d="m 2136.65,2271.23 c 3.84,-2 8.58,-0.5 10.58,3.34 2,3.84 0.5,8.58 -3.34,10.58 -3.84,2 -8.58,0.5 -10.58,-3.34 -2,-3.84 -0.5,-8.58 3.34,-10.58 z"
               id="path1257" />
            <path
               class="cls-9"
               d="m 2148.86,2227.89 c 4.43,-2.31 9.9,-0.58 12.2,3.85 2.31,4.43 0.58,9.9 -3.85,12.2 -4.43,2.31 -9.9,0.58 -12.2,-3.85 -2.31,-4.43 -0.58,-9.9 3.85,-12.2 z"
               id="path1259" />
            <circle
               class="cls-8"
               cx="2178.1799"
               cy="2199.6201"
               r="10.26"
               id="circle1261" />
            <path
               class="cls-8"
               d="m 2208.07,2162.74 c 5.62,-2.92 12.54,-0.74 15.46,4.88 2.92,5.62 0.74,12.54 -4.88,15.46 -5.62,2.92 -12.54,0.74 -15.46,-4.88 -2.92,-5.62 -0.74,-12.54 4.88,-15.46 z"
               id="path1263" />
            <path
               class="cls-8"
               d="m 2249.15,2147.04 c 6.25,-3.25 13.96,-0.82 17.21,5.43 3.25,6.25 0.82,13.96 -5.43,17.21 -6.25,3.25 -13.96,0.82 -17.21,-5.43 -3.25,-6.25 -0.82,-13.96 5.43,-17.21 z"
               id="path1265" />
            <path
               class="cls-8"
               d="m 2292.57,2144.68 c 7.01,-3.64 15.64,-0.92 19.28,6.09 3.64,7.01 0.92,15.64 -6.09,19.28 -7.01,3.64 -15.64,0.92 -19.28,-6.09 -3.64,-7.01 -0.92,-15.64 6.09,-19.28 z"
               id="path1267" />
            <path
               class="cls-8"
               d="m 2334.25,2156.31 c 7.63,-3.97 17.03,-1 21,6.63 3.97,7.63 1,17.03 -6.63,21 -7.63,3.97 -17.03,1 -21,-6.63 -3.97,-7.63 -1,-17.03 6.63,-21 z"
               id="path1269" />
            <circle
               class="cls-8"
               cx="2377.74"
               cy="2195.25"
               r="13.44"
               transform="rotate(-27.48,2377.4213,2195.0678)"
               id="circle1271" />
            <path
               class="cls-8"
               d="m 2092.19,2277.69 c 1.37,-0.71 3.06,-0.18 3.77,1.19 0.71,1.37 0.18,3.06 -1.19,3.77 -1.37,0.71 -3.06,0.18 -3.77,-1.19 -0.71,-1.37 -0.18,-3.06 1.19,-3.77 z"
               id="path1273" />
            <circle
               class="cls-8"
               cx="2101.96"
               cy="2239.0701"
               r="3.96"
               id="circle1275" />
            <path
               class="cls-8"
               d="m 2117.07,2196.4 c 2.48,-1.29 5.54,-0.32 6.83,2.16 1.29,2.48 0.32,5.54 -2.16,6.83 -2.48,1.29 -5.54,0.32 -6.83,-2.16 -1.29,-2.48 -0.32,-5.54 2.16,-6.83 z"
               id="path1277" />
            <path
               class="cls-8"
               d="m 2142.03,2162.08 c 3.02,-1.57 6.74,-0.4 8.31,2.62 1.57,3.02 0.4,6.74 -2.62,8.31 -3.02,1.57 -6.74,0.4 -8.31,-2.62 -1.57,-3.02 -0.4,-6.74 2.62,-8.31 z"
               id="path1279" />
            <path
               class="cls-8"
               d="m 2173.73,2134.23 c 3.56,-1.85 7.95,-0.47 9.8,3.09 1.85,3.56 0.47,7.95 -3.09,9.8 -3.56,1.85 -7.95,0.47 -9.8,-3.09 -1.85,-3.56 -0.47,-7.95 3.09,-9.8 z"
               id="path1281" />
            <path
               class="cls-8"
               d="m 2210.71,2114.42 c 4.01,-2.09 8.96,-0.53 11.04,3.49 2.09,4.01 0.53,8.96 -3.49,11.04 -4.02,2.08 -8.96,0.53 -11.04,-3.49 -2.08,-4.02 -0.53,-8.96 3.49,-11.04 z"
               id="path1283" />
            <path
               class="cls-2"
               d="m 2251.02,2103.49 c 4.43,-2.31 9.9,-0.58 12.2,3.85 2.31,4.43 0.58,9.9 -3.85,12.2 -4.43,2.31 -9.9,0.58 -12.2,-3.85 -2.31,-4.43 -0.58,-9.9 3.85,-12.2 z"
               id="path1285" />
            <path
               class="cls-8"
               d="m 2292.6,2101.79 c 4.86,-2.53 10.84,-0.64 13.37,4.22 2.53,4.86 0.64,10.84 -4.22,13.37 -4.86,2.53 -10.84,0.64 -13.37,-4.22 -2.53,-4.86 -0.64,-10.84 4.22,-13.37 z"
               id="path1287" />
            <circle
               class="cls-8"
               cx="2338.27"
               cy="2119.05"
               r="10.77"
               id="circle1289" />
            <path
               class="cls-8"
               d="m 2371.08,2126.16 c 5.7,-2.96 12.73,-0.75 15.69,4.95 2.96,5.7 0.75,12.73 -4.95,15.69 -5.7,2.96 -12.73,0.75 -15.69,-4.95 -2.96,-5.7 -0.75,-12.73 4.95,-15.69 z"
               id="path1291" />
            <path
               class="cls-8"
               d="m 2404,2150.79 c 6.16,-3.2 13.74,-0.81 16.94,5.35 3.2,6.16 0.81,13.74 -5.35,16.94 -6.16,3.2 -13.74,0.81 -16.94,-5.35 -3.2,-6.16 -0.81,-13.74 5.35,-16.94 z"
               id="path1293" />
            <circle
               class="cls-8"
               cx="2436.6799"
               cy="2194.1399"
               r="13.58"
               transform="rotate(-27.48,2436.3561,2193.9614)"
               id="circle1295" />
            <path
               class="cls-8"
               d="m 2448.87,2218.43 c 7.24,-3.77 16.17,-0.95 19.93,6.29 3.77,7.24 0.95,16.17 -6.29,19.93 -7.24,3.77 -16.17,0.95 -19.93,-6.29 -3.77,-7.24 -0.95,-16.17 6.29,-19.93 z"
               id="path1297" />
            <path
               class="cls-2"
               d="m 2461.14,2258.3 c 7.24,-3.77 16.17,-0.95 19.93,6.29 3.77,7.24 0.95,16.17 -6.29,19.93 -7.24,3.77 -16.17,0.95 -19.93,-6.29 -3.77,-7.24 -0.95,-16.17 6.29,-19.93 z"
               id="path1299" />
            <path
               class="cls-8"
               d="m 2459.6,2300.36 c 7.65,-3.98 17.09,-1 21.07,6.65 3.98,7.65 1,17.09 -6.65,21.07 -7.65,3.98 -17.09,1 -21.07,-6.65 -3.98,-7.65 -1,-17.09 6.65,-21.07 z"
               id="path1301" />
            <path
               class="cls-8"
               d="m 2451.55,2342.23 c 7.23,-3.76 16.14,-0.95 19.9,6.28 3.76,7.23 0.95,16.14 -6.28,19.9 -7.23,3.76 -16.14,0.95 -19.9,-6.28 -3.76,-7.23 -0.95,-16.14 6.28,-19.9 z"
               id="path1303" />
            <path
               class="cls-8"
               d="m 2434.74,2381.59 c 6.58,-3.42 14.69,-0.86 18.11,5.72 3.42,6.58 0.86,14.69 -5.72,18.11 -6.58,3.42 -14.69,0.86 -18.11,-5.72 -3.42,-6.58 -0.86,-14.69 5.72,-18.11 z"
               id="path1305" />
            <path
               class="cls-12"
               d="m 2407.11,2416.58 c 7.26,-3.78 16.22,-0.95 19.99,6.31 3.78,7.26 0.95,16.22 -6.31,19.99 -7.26,3.78 -16.22,0.95 -19.99,-6.31 -3.78,-7.26 -0.95,-16.22 6.31,-19.99 z"
               id="path1307" />
            <path
               class="cls-8"
               d="m 2072.23,2194.17 c 1.21,-0.63 2.7,-0.16 3.33,1.05 0.63,1.21 0.16,2.7 -1.05,3.33 -1.21,0.63 -2.7,0.16 -3.33,-1.05 -0.63,-1.21 -0.16,-2.7 1.05,-3.33 z"
               id="path1309" />
            <circle
               class="cls-8"
               cx="2094.29"
               cy="2161.0601"
               r="3.4100001"
               id="circle1311" />
            <path
               class="cls-12"
               d="m 2119.1,2126.18 c 2.08,-1.08 4.65,-0.27 5.74,1.81 1.08,2.08 0.27,4.65 -1.81,5.74 -2.08,1.08 -4.65,0.27 -5.74,-1.81 -1.09,-2.08 -0.27,-4.65 1.81,-5.74 z"
               id="path1313" />
            <circle
               class="cls-8"
               cx="2152.8201"
               cy="2103.99"
               r="5.0999999"
               id="circle1315" />
            <path
               class="cls-8"
               d="m 2185.85,2078.63 c 2.91,-1.51 6.5,-0.38 8.01,2.53 1.51,2.91 0.38,6.5 -2.53,8.01 -2.91,1.51 -6.5,0.38 -8.01,-2.53 -1.51,-2.91 -0.38,-6.5 2.53,-8.01 z"
               id="path1317" />
            <path
               class="cls-8"
               d="m 2224.17,2064.27 c 3.32,-1.73 7.42,-0.44 9.15,2.89 1.73,3.32 0.44,7.42 -2.89,9.15 -3.32,1.73 -7.42,0.44 -9.15,-2.89 -1.73,-3.32 -0.44,-7.42 2.89,-9.15 z"
               id="path1319" />
            <path
               class="cls-8"
               d="m 2264.28,2056.89 c 3.71,-1.93 8.29,-0.49 10.22,3.23 1.93,3.71 0.49,8.29 -3.23,10.22 -3.71,1.93 -8.29,0.49 -10.22,-3.23 -1.93,-3.72 -0.49,-8.29 3.23,-10.22 z"
               id="path1321" />
            <path
               class="cls-8"
               d="m 2305,2056.82 c 4.04,-2.1 9.01,-0.53 11.11,3.51 2.1,4.04 0.53,9.01 -3.51,11.11 -4.04,2.1 -9.01,0.53 -11.11,-3.51 -2.1,-4.04 -0.53,-9.01 3.51,-11.11 z"
               id="path1323" />
            <path
               class="cls-4"
               d="m 2345.01,2063.87 c 4.36,-2.27 9.73,-0.57 12,3.79 2.27,4.36 0.57,9.73 -3.79,12 -4.36,2.27 -9.73,0.57 -12,-3.79 -2.27,-4.36 -0.57,-9.73 3.79,-12 z"
               id="path1325" />
            <path
               class="cls-8"
               d="m 2383.11,2077.73 c 4.68,-2.43 10.45,-0.61 12.89,4.07 2.43,4.68 0.61,10.45 -4.07,12.89 -4.68,2.43 -10.45,0.61 -12.89,-4.07 -2.43,-4.68 -0.61,-10.45 4.07,-12.89 z"
               id="path1327" />
            <circle
               class="cls-8"
               cx="2422.8301"
               cy="2107.1201"
               r="10.21"
               id="circle1329" />
            <path
               class="cls-8"
               d="m 2448.92,2124.24 c 5.33,-2.77 11.89,-0.7 14.66,4.63 2.77,5.33 0.7,11.89 -4.63,14.66 -5.33,2.77 -11.89,0.7 -14.66,-4.63 -2.77,-5.33 -0.7,-11.89 4.63,-14.66 z"
               id="path1331" />
            <path
               class="cls-8"
               d="m 2474.59,2155.41 c 5.65,-2.94 12.61,-0.74 15.55,4.91 2.94,5.65 0.74,12.61 -4.91,15.55 -5.65,2.94 -12.61,0.74 -15.55,-4.91 -2.94,-5.65 -0.74,-12.61 4.91,-15.55 z"
               id="path1333" />
            <path
               class="cls-9"
               d="m 2494.36,2190.54 c 6,-3.12 13.39,-0.79 16.51,5.21 3.12,6 0.79,13.39 -5.21,16.51 -6,3.12 -13.39,0.79 -16.51,-5.21 -3.12,-6 -0.79,-13.39 5.21,-16.51 z"
               id="path1335" />
            <path
               class="cls-8"
               d="m 2507.63,2228.57 c 6.37,-3.31 14.22,-0.83 17.54,5.54 3.31,6.37 0.83,14.22 -5.54,17.54 -6.37,3.31 -14.22,0.83 -17.54,-5.54 -3.31,-6.37 -0.83,-14.22 5.54,-17.54 z"
               id="path1337" />
            <path
               class="cls-8"
               d="m 2513.9,2268.28 c 6.8,-3.54 15.17,-0.89 18.71,5.91 3.54,6.8 0.89,15.17 -5.91,18.71 -6.8,3.54 -15.17,0.89 -18.71,-5.91 -3.54,-6.8 -0.89,-15.17 5.91,-18.71 z"
               id="path1339" />
            <path
               class="cls-8"
               d="m 2513,2308.51 c 7.23,-3.76 16.15,-0.95 19.91,6.29 3.76,7.23 0.95,16.15 -6.29,19.91 -7.23,3.76 -16.15,0.95 -19.91,-6.29 -3.76,-7.23 -0.95,-16.15 6.29,-19.91 z"
               id="path1341" />
            <path
               class="cls-8"
               d="m 2505.12,2348.35 c 7.5,-3.9 16.74,-0.98 20.64,6.52 3.9,7.5 0.98,16.74 -6.52,20.64 -7.5,3.9 -16.74,0.98 -20.64,-6.52 -3.9,-7.5 -0.98,-16.74 6.52,-20.64 z"
               id="path1343" />
            <path
               class="cls-8"
               d="m 2490.64,2386.68 c 7.54,-3.92 16.83,-0.99 20.75,6.55 3.92,7.54 0.99,16.83 -6.55,20.75 -7.54,3.92 -16.83,0.99 -20.75,-6.55 -3.92,-7.54 -0.99,-16.83 6.55,-20.75 z"
               id="path1345" />
          </g>
        </g>
        <g
           id="g1473">
          <g
             id="g1379">
            <g
               id="g1367">
              <path
                 class="cls-8"
                 d="m 271.42,2402.43 h 21.94 v 161.43 h -21.94 v -15.67 c -6.94,11.87 -21.94,18.36 -36.05,18.36 -28.43,0 -51.94,-21.94 -51.94,-55.08 0,-33.14 23.51,-54.85 51.72,-54.85 14.78,0 29.33,6.27 36.27,18.13 z m -0.22,108.81 c 0,-21.05 -17.24,-34.03 -33.36,-34.03 -17.91,0 -32.46,14.33 -32.46,34.03 0,19.7 14.55,34.7 32.46,34.7 17.91,0 33.36,-13.66 33.36,-34.7 z"
                 id="path1351" />
              <path
                 class="cls-8"
                 d="m 396.57,2459.3 h 23.73 l -64.93,155.38 h -23.29 l 22.61,-55.53 -41.87,-99.86 h 23.73 l 30,72.76 30,-72.76 z"
                 id="path1353" />
              <path
                 class="cls-8"
                 d="m 536.73,2504.08 v 59.78 h -21.94 v -58.44 c 0,-17.02 -10.3,-27.32 -23.73,-27.32 -13.43,0 -30.23,7.84 -30.23,29.55 v 56.2 h -21.94 v -104.56 h 21.94 v 16.12 c 6.05,-12.99 22.84,-18.81 34.03,-18.81 26.42,0 42.09,17.69 41.87,47.46 z"
                 id="path1355" />
              <path
                 class="cls-8"
                 d="m 649.35,2459.3 h 21.94 v 104.56 h -21.94 v -17.69 c -6.72,12.09 -21.05,20.37 -37.17,20.37 -27.32,0 -50.82,-22.84 -50.82,-55.08 0,-32.24 22.17,-54.85 51.72,-54.85 15.22,0 29.55,6.49 36.27,18.36 z m -0.23,52.16 c 0,-20.15 -16.79,-34.26 -33.58,-34.26 -17.91,0 -32.02,15.67 -32.02,34.26 0,18.59 14.1,34.48 32.46,34.48 18.36,0 33.14,-14.78 33.14,-34.48 z"
                 id="path1357" />
              <path
                 class="cls-8"
                 d="m 869.21,2504.08 v 59.78 h -22.17 v -58.66 c 0,-17.02 -8.96,-27.54 -23.06,-27.54 -17.24,-0.22 -26.2,12.09 -26.2,34.03 v 52.17 h -22.17 v -58.66 c 0,-17.02 -8.96,-27.54 -21.94,-27.54 -13.66,0 -27.54,8.73 -27.54,30 v 56.2 H 704.19 V 2459.3 h 21.94 v 16.34 c 4.7,-11.64 18.58,-19.03 32.69,-19.03 15.22,0 27.99,8.06 34.26,21.94 8.96,-18.14 25.3,-21.94 35.82,-21.94 26.2,0 40.3,17.69 40.3,47.46 z"
                 id="path1359" />
              <path
                 class="cls-8"
                 d="m 900.55,2563.85 v -104.56 h 21.94 v 104.56 z"
                 id="path1361" />
              <path
                 class="cls-8"
                 d="m 948.46,2511.46 c 0,-33.14 26.2,-54.85 56.42,-54.85 17.02,0 31.57,6.94 40.75,17.91 l -14.55,13.66 c -6.04,-6.72 -15.22,-10.97 -25.75,-10.97 -19.48,0 -34.93,14.33 -34.93,34.26 0,19.93 15.45,34.48 34.93,34.48 10.52,0 19.7,-4.25 25.75,-10.97 l 14.55,13.66 c -9.18,10.97 -23.73,17.91 -40.75,17.91 -30.23,0 -56.42,-21.94 -56.42,-55.08 z"
                 id="path1363" />
              <path
                 class="cls-8"
                 d="m 1061.75,2532.51 h 20.37 c 0,8.28 7.39,15.45 19.25,15.45 11.86,0 19.48,-6.04 19.48,-13.88 0,-6.94 -5.6,-10.52 -13.43,-12.31 l -14.11,-3.36 c -19.48,-5.15 -28.43,-15.22 -28.43,-30.67 0,-17.02 15.45,-31.12 37.17,-31.12 17.91,0 37.17,9.4 37.17,31.34 h -21.05 c 0,-7.61 -7.84,-12.76 -15.67,-12.76 -9.18,0 -15.45,6.04 -15.45,13.21 0,6.49 6.04,10.08 12.54,11.64 l 15.9,3.81 c 22.39,5.6 27.31,19.48 27.31,30.67 0,19.93 -19.7,32.02 -41.2,32.02 -19.48,0 -39.4,-12.09 -39.85,-34.03 z"
                 id="path1365" />
            </g>
            <g
               id="g1377">
              <path
                 class="cls-5"
                 d="m 404.65,2322.54 v 17.91 l -61.57,66.05 h 61.57 v 20.6 h -92.47 v -17.91 l 60.45,-66.05 h -56.87 v -20.6 z"
                 id="path1369" />
              <path
                 class="cls-5"
                 d="m 529.36,2383.66 h -83.29 c 2.91,17.02 15.45,25.75 32.24,25.75 12.31,0 23.73,-5.6 29.55,-15.22 l 17.46,8.73 c -9.18,17.46 -27.99,26.87 -47.91,26.87 -30.23,0 -53.96,-22.17 -53.96,-55.3 0,-33.13 24.18,-54.63 53.96,-54.63 29.78,0 52.39,21.49 52.39,54.41 0,2.91 -0.22,6.04 -0.45,9.4 z m -21.5,-17.69 c -2.24,-16.34 -14.1,-25.75 -30.23,-25.75 -16.13,0 -28.21,8.28 -31.34,25.75 z"
                 id="path1371" />
              <path
                 class="cls-5"
                 d="m 684.29,2322.54 h 23.73 l -38.29,104.56 h -18.58 l -27.09,-75 -26.2,75 h -18.14 l -39.63,-104.56 h 23.73 l 25.08,71.42 24.85,-71.42 h 20.6 l 25.08,71.42 24.85,-71.42 z"
                 id="path1373" />
              <path
                 class="cls-5"
                 d="m 718.77,2374.7 c 0,-33.14 25.08,-54.85 54.85,-54.85 29.77,0 55.08,21.72 55.08,54.85 0,33.13 -25.3,55.08 -55.08,55.08 -29.78,0 -54.85,-21.94 -54.85,-55.08 z m 87.99,0 c 0,-20.15 -15.22,-34.26 -33.14,-34.26 -17.92,0 -32.91,14.11 -32.91,34.26 0,20.15 15,34.48 32.91,34.48 17.91,0 33.14,-14.11 33.14,-34.48 z"
                 id="path1375" />
            </g>
          </g>
          <g
             id="g1471">
            <path
               class="cls-8"
               d="m 634.67,2263.23 c 3.84,-2 8.58,-0.5 10.58,3.34 2,3.84 0.5,8.58 -3.34,10.58 -3.84,2 -8.58,0.5 -10.58,-3.34 -2,-3.84 -0.5,-8.58 3.34,-10.58 z"
               id="path1381" />
            <path
               class="cls-9"
               d="m 646.88,2219.9 c 4.43,-2.31 9.9,-0.58 12.2,3.85 2.31,4.43 0.58,9.9 -3.85,12.2 -4.43,2.31 -9.9,0.58 -12.2,-3.85 -2.31,-4.43 -0.58,-9.9 3.85,-12.2 z"
               id="path1383" />
            <circle
               class="cls-8"
               cx="676.20001"
               cy="2191.6299"
               r="10.26"
               id="circle1385" />
            <path
               class="cls-8"
               d="m 706.1,2154.74 c 5.62,-2.92 12.54,-0.74 15.46,4.88 2.92,5.62 0.74,12.54 -4.88,15.46 -5.62,2.92 -12.54,0.74 -15.46,-4.88 -2.92,-5.62 -0.74,-12.54 4.88,-15.46 z"
               id="path1387" />
            <path
               class="cls-8"
               d="m 747.17,2139.04 c 6.25,-3.25 13.96,-0.82 17.21,5.43 3.25,6.25 0.82,13.96 -5.43,17.21 -6.25,3.25 -13.96,0.82 -17.21,-5.43 -3.25,-6.25 -0.82,-13.96 5.43,-17.21 z"
               id="path1389" />
            <path
               class="cls-8"
               d="m 790.59,2136.69 c 7.01,-3.64 15.64,-0.92 19.28,6.09 3.64,7.01 0.92,15.64 -6.09,19.28 -7.01,3.64 -15.64,0.92 -19.28,-6.09 -3.64,-7.01 -0.92,-15.64 6.09,-19.28 z"
               id="path1391" />
            <path
               class="cls-8"
               d="m 832.27,2148.31 c 7.63,-3.97 17.03,-1 21,6.63 3.97,7.63 1,17.03 -6.63,21 -7.63,3.97 -17.03,1 -21,-6.63 -3.97,-7.63 -1,-17.03 6.63,-21 z"
               id="path1393" />
            <circle
               class="cls-8"
               cx="875.76001"
               cy="2187.26"
               r="13.44"
               transform="rotate(-27.48,875.61104,2187.0357)"
               id="circle1395" />
            <path
               class="cls-8"
               d="m 590.22,2269.69 c 1.37,-0.71 3.06,-0.18 3.77,1.19 0.71,1.37 0.18,3.06 -1.19,3.77 -1.37,0.71 -3.06,0.18 -3.77,-1.19 -0.71,-1.37 -0.18,-3.06 1.19,-3.77 z"
               id="path1397" />
            <circle
               class="cls-8"
               cx="599.97998"
               cy="2231.0801"
               r="3.96"
               id="circle1399" />
            <path
               class="cls-8"
               d="m 615.09,2188.41 c 2.48,-1.29 5.54,-0.32 6.83,2.16 1.29,2.48 0.32,5.54 -2.16,6.83 -2.48,1.29 -5.54,0.32 -6.83,-2.16 -1.29,-2.48 -0.32,-5.54 2.16,-6.83 z"
               id="path1401" />
            <path
               class="cls-8"
               d="m 640.05,2154.08 c 3.02,-1.57 6.74,-0.4 8.31,2.62 1.57,3.02 0.4,6.74 -2.62,8.31 -3.02,1.57 -6.74,0.4 -8.31,-2.62 -1.57,-3.02 -0.4,-6.74 2.62,-8.31 z"
               id="path1403" />
            <path
               class="cls-8"
               d="m 671.76,2126.24 c 3.56,-1.85 7.95,-0.47 9.8,3.09 1.85,3.56 0.47,7.95 -3.09,9.8 -3.56,1.85 -7.95,0.47 -9.8,-3.09 -1.85,-3.56 -0.47,-7.95 3.09,-9.8 z"
               id="path1405" />
            <path
               class="cls-8"
               d="m 708.74,2106.42 c 4.01,-2.09 8.96,-0.53 11.04,3.49 2.09,4.01 0.53,8.96 -3.49,11.04 -4.02,2.08 -8.96,0.53 -11.04,-3.49 -2.09,-4.01 -0.53,-8.96 3.49,-11.04 z"
               id="path1407" />
            <path
               class="cls-2"
               d="m 749.05,2095.49 c 4.43,-2.31 9.9,-0.58 12.2,3.85 2.31,4.43 0.58,9.9 -3.85,12.2 -4.43,2.31 -9.9,0.58 -12.2,-3.85 -2.31,-4.43 -0.58,-9.9 3.85,-12.2 z"
               id="path1409" />
            <path
               class="cls-8"
               d="m 790.62,2093.8 c 4.86,-2.53 10.84,-0.64 13.37,4.22 2.53,4.86 0.64,10.84 -4.22,13.37 -4.86,2.53 -10.84,0.64 -13.37,-4.22 -2.53,-4.86 -0.64,-10.84 4.22,-13.37 z"
               id="path1411" />
            <circle
               class="cls-8"
               cx="836.29999"
               cy="2111.05"
               r="10.77"
               id="circle1413" />
            <path
               class="cls-8"
               d="m 869.1,2118.16 c 5.7,-2.96 12.73,-0.75 15.69,4.95 2.96,5.7 0.75,12.73 -4.95,15.69 -5.7,2.96 -12.73,0.75 -15.69,-4.95 -2.96,-5.7 -0.75,-12.73 4.95,-15.69 z"
               id="path1415" />
            <path
               class="cls-8"
               d="m 902.03,2142.79 c 6.16,-3.2 13.74,-0.81 16.94,5.35 3.2,6.16 0.81,13.74 -5.35,16.94 -6.16,3.2 -13.74,0.81 -16.94,-5.35 -3.2,-6.16 -0.81,-13.74 5.35,-16.94 z"
               id="path1417" />
            <circle
               class="cls-8"
               cx="934.70001"
               cy="2186.1499"
               r="13.58"
               transform="rotate(-27.48,934.54587,2185.9294)"
               id="circle1419" />
            <path
               class="cls-8"
               d="m 946.89,2210.43 c 7.24,-3.77 16.17,-0.95 19.93,6.29 3.77,7.24 0.95,16.17 -6.29,19.93 -7.24,3.77 -16.17,0.95 -19.93,-6.29 -3.77,-7.24 -0.95,-16.17 6.29,-19.93 z"
               id="path1421" />
            <path
               class="cls-2"
               d="m 959.16,2250.3 c 7.24,-3.77 16.17,-0.95 19.93,6.29 3.77,7.24 0.95,16.17 -6.29,19.93 -7.24,3.77 -16.17,0.95 -19.93,-6.29 -3.77,-7.24 -0.95,-16.17 6.29,-19.93 z"
               id="path1423" />
            <path
               class="cls-8"
               d="m 957.63,2292.36 c 7.65,-3.98 17.09,-1 21.07,6.65 3.98,7.65 1,17.09 -6.65,21.07 -7.65,3.98 -17.09,1 -21.07,-6.65 -3.98,-7.65 -1,-17.09 6.65,-21.07 z"
               id="path1425" />
            <path
               class="cls-8"
               d="m 949.58,2334.23 c 7.23,-3.76 16.14,-0.95 19.9,6.28 3.76,7.23 0.95,16.14 -6.28,19.9 -7.23,3.76 -16.14,0.95 -19.9,-6.28 -3.76,-7.23 -0.95,-16.14 6.28,-19.9 z"
               id="path1427" />
            <path
               class="cls-8"
               d="m 932.77,2373.59 c 6.58,-3.42 14.69,-0.86 18.11,5.72 3.42,6.58 0.86,14.69 -5.72,18.11 -6.58,3.42 -14.69,0.86 -18.11,-5.72 -3.42,-6.58 -0.86,-14.69 5.72,-18.11 z"
               id="path1429" />
            <path
               class="cls-12"
               d="m 905.14,2408.58 c 7.26,-3.78 16.22,-0.95 19.99,6.31 3.78,7.26 0.95,16.22 -6.31,19.99 -7.26,3.78 -16.22,0.95 -19.99,-6.31 -3.78,-7.26 -0.95,-16.22 6.31,-19.99 z"
               id="path1431" />
            <path
               class="cls-8"
               d="m 570.26,2186.17 c 1.21,-0.63 2.7,-0.16 3.33,1.05 0.63,1.21 0.16,2.7 -1.05,3.33 -1.21,0.63 -2.7,0.16 -3.33,-1.05 -0.63,-1.21 -0.16,-2.7 1.05,-3.33 z"
               id="path1433" />
            <circle
               class="cls-8"
               cx="592.31"
               cy="2153.0601"
               r="3.4100001"
               id="circle1435" />
            <path
               class="cls-12"
               d="m 617.12,2118.18 c 2.08,-1.08 4.65,-0.27 5.74,1.81 1.08,2.08 0.27,4.65 -1.81,5.74 -2.08,1.08 -4.65,0.27 -5.74,-1.81 -1.09,-2.08 -0.27,-4.65 1.81,-5.74 z"
               id="path1437" />
            <circle
               class="cls-8"
               cx="650.84003"
               cy="2095.99"
               r="5.0999999"
               id="circle1439" />
            <path
               class="cls-8"
               d="m 683.87,2070.63 c 2.91,-1.51 6.5,-0.38 8.01,2.53 1.51,2.91 0.38,6.5 -2.53,8.01 -2.91,1.51 -6.5,0.38 -8.01,-2.53 -1.51,-2.91 -0.38,-6.5 2.53,-8.01 z"
               id="path1441" />
            <path
               class="cls-8"
               d="m 722.19,2056.28 c 3.32,-1.73 7.42,-0.44 9.15,2.89 1.73,3.32 0.44,7.42 -2.89,9.15 -3.32,1.73 -7.42,0.44 -9.15,-2.89 -1.73,-3.32 -0.44,-7.42 2.89,-9.15 z"
               id="path1443" />
            <path
               class="cls-8"
               d="m 762.31,2048.9 c 3.71,-1.93 8.29,-0.49 10.22,3.23 1.93,3.71 0.49,8.29 -3.23,10.22 -3.71,1.93 -8.29,0.49 -10.22,-3.23 -1.93,-3.71 -0.49,-8.29 3.23,-10.22 z"
               id="path1445" />
            <path
               class="cls-8"
               d="m 803.02,2048.82 c 4.04,-2.1 9.01,-0.53 11.11,3.51 2.1,4.04 0.53,9.01 -3.51,11.11 -4.04,2.1 -9.01,0.53 -11.11,-3.51 -2.1,-4.04 -0.53,-9.01 3.51,-11.11 z"
               id="path1447" />
            <path
               class="cls-4"
               d="m 843.03,2055.87 c 4.36,-2.27 9.73,-0.57 12,3.79 2.27,4.36 0.57,9.73 -3.79,12 -4.36,2.27 -9.73,0.57 -12,-3.79 -2.27,-4.36 -0.57,-9.73 3.79,-12 z"
               id="path1449" />
            <path
               class="cls-8"
               d="m 881.14,2069.74 c 4.68,-2.43 10.45,-0.61 12.89,4.07 2.43,4.68 0.61,10.45 -4.07,12.89 -4.68,2.43 -10.45,0.61 -12.89,-4.07 -2.44,-4.68 -0.61,-10.45 4.07,-12.89 z"
               id="path1451" />
            <circle
               class="cls-8"
               cx="920.85999"
               cy="2099.1299"
               r="10.21"
               id="circle1453" />
            <path
               class="cls-8"
               d="m 946.94,2116.24 c 5.33,-2.77 11.89,-0.7 14.66,4.63 2.77,5.33 0.7,11.89 -4.63,14.66 -5.33,2.77 -11.89,0.7 -14.66,-4.63 -2.77,-5.33 -0.7,-11.89 4.63,-14.66 z"
               id="path1455" />
            <path
               class="cls-8"
               d="m 972.62,2147.41 c 5.65,-2.94 12.61,-0.74 15.55,4.91 2.94,5.65 0.74,12.61 -4.91,15.55 -5.65,2.94 -12.61,0.74 -15.55,-4.91 -2.94,-5.65 -0.74,-12.61 4.91,-15.55 z"
               id="path1457" />
            <path
               class="cls-9"
               d="m 992.38,2182.54 c 6,-3.12 13.39,-0.79 16.51,5.21 3.12,6 0.79,13.39 -5.21,16.51 -6,3.12 -13.39,0.79 -16.51,-5.21 -3.12,-6 -0.79,-13.39 5.21,-16.51 z"
               id="path1459" />
            <path
               class="cls-8"
               d="m 1005.65,2220.58 c 6.37,-3.31 14.22,-0.83 17.54,5.54 3.31,6.37 0.83,14.22 -5.54,17.54 -6.37,3.31 -14.22,0.83 -17.54,-5.54 -3.31,-6.37 -0.83,-14.22 5.54,-17.54 z"
               id="path1461" />
            <path
               class="cls-8"
               d="m 1011.93,2260.29 c 6.8,-3.54 15.17,-0.89 18.71,5.91 3.54,6.8 0.89,15.17 -5.91,18.71 -6.8,3.54 -15.17,0.89 -18.71,-5.91 -3.54,-6.8 -0.89,-15.17 5.91,-18.71 z"
               id="path1463" />
            <path
               class="cls-8"
               d="m 1011.02,2300.52 c 7.23,-3.76 16.15,-0.95 19.91,6.29 3.76,7.23 0.95,16.15 -6.29,19.91 -7.23,3.76 -16.15,0.95 -19.91,-6.29 -3.76,-7.23 -0.95,-16.15 6.29,-19.91 z"
               id="path1465" />
            <path
               class="cls-8"
               d="m 1003.14,2340.35 c 7.5,-3.9 16.74,-0.98 20.64,6.52 3.9,7.5 0.98,16.74 -6.52,20.64 -7.5,3.9 -16.74,0.98 -20.64,-6.52 -3.9,-7.5 -0.98,-16.74 6.52,-20.64 z"
               id="path1467" />
            <path
               class="cls-8"
               d="m 988.66,2378.69 c 7.54,-3.92 16.83,-0.99 20.75,6.55 3.92,7.54 0.99,16.83 -6.55,20.75 -7.54,3.92 -16.83,0.99 -20.75,-6.55 -3.92,-7.54 -0.99,-16.83 6.55,-20.75 z"
               id="path1469" />
          </g>
        </g>
        <g
           id="g1597">
          <g
             id="g1503">
            <g
               id="g1491">
              <path
                 d="m 301.55,416.59 h 21.94 v 161.43 h -21.94 v -15.67 c -6.94,11.87 -21.94,18.36 -36.05,18.36 -28.43,0 -51.94,-21.94 -51.94,-55.08 0,-33.14 23.51,-54.85 51.72,-54.85 14.78,0 29.33,6.27 36.27,18.13 z m -0.23,108.81 c 0,-21.05 -17.24,-34.03 -33.36,-34.03 -17.91,0 -32.46,14.33 -32.46,34.03 0,19.7 14.55,34.7 32.46,34.7 17.91,0 33.36,-13.66 33.36,-34.7 z"
                 id="path1475" />
              <path
                 d="m 426.7,473.46 h 23.73 L 385.5,628.84 h -23.29 l 22.61,-55.53 -41.87,-99.86 h 23.73 l 30,72.76 30,-72.76 z"
                 id="path1477" />
              <path
                 d="m 566.85,518.24 v 59.78 h -21.94 v -58.44 c 0,-17.02 -10.3,-27.32 -23.73,-27.32 -13.43,0 -30.23,7.84 -30.23,29.55 v 56.2 H 469.01 V 473.45 h 21.94 v 16.12 c 6.05,-12.99 22.84,-18.81 34.03,-18.81 26.42,0 42.09,17.69 41.87,47.46 z"
                 id="path1479" />
              <path
                 d="m 679.47,473.46 h 21.94 v 104.56 h -21.94 v -17.69 c -6.72,12.09 -21.05,20.37 -37.17,20.37 -27.32,0 -50.82,-22.84 -50.82,-55.08 0,-32.24 22.17,-54.85 51.72,-54.85 15.22,0 29.55,6.49 36.27,18.36 z m -0.22,52.17 c 0,-20.15 -16.79,-34.26 -33.58,-34.26 -17.91,0 -32.02,15.67 -32.02,34.26 0,18.59 14.1,34.48 32.46,34.48 18.36,0 33.14,-14.78 33.14,-34.48 z"
                 id="path1481" />
              <path
                 d="m 899.33,518.24 v 59.78 h -22.17 v -58.66 c 0,-17.02 -8.96,-27.54 -23.06,-27.54 -17.24,-0.22 -26.2,12.09 -26.2,34.03 v 52.17 h -22.17 v -58.66 c 0,-17.02 -8.96,-27.54 -21.94,-27.54 -13.66,0 -27.54,8.73 -27.54,30 v 56.2 H 734.31 V 473.46 h 21.94 v 16.34 c 4.7,-11.64 18.58,-19.03 32.69,-19.03 15.22,0 27.99,8.06 34.26,21.94 8.96,-18.14 25.3,-21.94 35.82,-21.94 26.2,0 40.3,17.69 40.3,47.46 z"
                 id="path1483" />
              <path
                 d="M 930.67,578.02 V 473.46 h 21.94 v 104.56 z"
                 id="path1485" />
              <path
                 d="m 978.59,525.63 c 0,-33.14 26.2,-54.85 56.42,-54.85 17.02,0 31.57,6.94 40.75,17.91 l -14.55,13.66 c -6.04,-6.72 -15.22,-10.97 -25.75,-10.97 -19.48,0 -34.93,14.33 -34.93,34.26 0,19.93 15.45,34.48 34.93,34.48 10.52,0 19.7,-4.25 25.75,-10.97 l 14.55,13.66 c -9.18,10.97 -23.73,17.91 -40.75,17.91 -30.23,0 -56.42,-21.94 -56.42,-55.08 z"
                 id="path1487" />
              <path
                 d="m 1091.87,546.67 h 20.37 c 0,8.28 7.39,15.45 19.25,15.45 11.86,0 19.48,-6.04 19.48,-13.88 0,-6.94 -5.6,-10.52 -13.43,-12.31 l -14.11,-3.36 C 1103.95,527.42 1095,517.35 1095,501.9 c 0,-17.02 15.45,-31.12 37.17,-31.12 17.91,0 37.17,9.4 37.17,31.34 h -21.05 c 0,-7.61 -7.84,-12.76 -15.67,-12.76 -9.18,0 -15.45,6.04 -15.45,13.21 0,6.49 6.04,10.08 12.54,11.64 l 15.9,3.81 c 22.39,5.6 27.31,19.48 27.31,30.67 0,19.93 -19.7,32.02 -41.2,32.02 -19.48,0 -39.4,-12.09 -39.85,-34.03 z"
                 id="path1489" />
            </g>
            <g
               id="g1501">
              <path
                 class="cls-6"
                 d="m 434.77,336.7 v 17.91 l -61.57,66.05 h 61.57 v 20.6 H 342.3 v -17.91 l 60.45,-66.05 h -56.87 v -20.6 z"
                 id="path1493" />
              <path
                 class="cls-6"
                 d="m 559.48,397.82 h -83.29 c 2.91,17.02 15.45,25.75 32.24,25.75 12.31,0 23.73,-5.6 29.55,-15.22 l 17.46,8.73 c -9.18,17.46 -27.99,26.87 -47.91,26.87 -30.23,0 -53.96,-22.17 -53.96,-55.3 0,-33.13 24.18,-54.63 53.96,-54.63 29.78,0 52.39,21.49 52.39,54.41 0,2.91 -0.22,6.04 -0.45,9.4 z m -21.49,-17.68 c -2.24,-16.34 -14.1,-25.75 -30.23,-25.75 -16.13,0 -28.21,8.28 -31.34,25.75 z"
                 id="path1495" />
              <path
                 class="cls-6"
                 d="m 714.41,336.7 h 23.73 l -38.29,104.56 h -18.58 l -27.09,-75 -26.2,75 H 609.84 L 570.21,336.7 h 23.73 l 25.08,71.42 24.85,-71.42 h 20.6 l 25.08,71.42 24.85,-71.42 z"
                 id="path1497" />
              <path
                 class="cls-6"
                 d="m 748.89,388.87 c 0,-33.14 25.08,-54.85 54.85,-54.85 29.77,0 55.08,21.72 55.08,54.85 0,33.13 -25.3,55.08 -55.08,55.08 -29.78,0 -54.85,-21.94 -54.85,-55.08 z m 87.99,0 c 0,-20.15 -15.22,-34.26 -33.14,-34.26 -17.92,0 -32.91,14.11 -32.91,34.26 0,20.15 15,34.48 32.91,34.48 17.91,0 33.14,-14.11 33.14,-34.48 z"
                 id="path1499" />
            </g>
          </g>
          <g
             id="g1595">
            <path
               d="m 664.8,277.4 c 3.84,-2 8.58,-0.5 10.58,3.34 2,3.84 0.5,8.58 -3.34,10.58 -3.84,2 -8.58,0.5 -10.58,-3.34 -2,-3.84 -0.5,-8.58 3.34,-10.58 z"
               id="path1505" />
            <path
               d="m 677.01,234.06 c 4.43,-2.31 9.9,-0.58 12.2,3.85 2.31,4.43 0.58,9.9 -3.85,12.2 -4.43,2.31 -9.9,0.58 -12.2,-3.85 -2.31,-4.43 -0.58,-9.9 3.85,-12.2 z"
               id="path1507" />
            <circle
               cx="706.32001"
               cy="205.78999"
               r="10.26"
               id="circle1509" />
            <path
               d="m 736.22,168.91 c 5.62,-2.92 12.54,-0.74 15.46,4.88 2.92,5.62 0.74,12.54 -4.88,15.46 -5.62,2.92 -12.54,0.74 -15.46,-4.88 -2.92,-5.62 -0.74,-12.54 4.88,-15.46 z"
               id="path1511" />
            <path
               d="m 777.3,153.21 c 6.25,-3.25 13.96,-0.82 17.21,5.43 3.25,6.25 0.82,13.96 -5.43,17.21 -6.25,3.25 -13.96,0.82 -17.21,-5.43 -3.25,-6.25 -0.82,-13.96 5.43,-17.21 z"
               id="path1513" />
            <path
               d="m 820.71,150.85 c 7.01,-3.64 15.64,-0.92 19.28,6.09 3.64,7.01 0.92,15.64 -6.09,19.28 -7.01,3.64 -15.64,0.92 -19.28,-6.09 -3.64,-7.01 -0.92,-15.64 6.09,-19.28 z"
               id="path1515" />
            <path
               d="m 862.4,162.48 c 7.63,-3.97 17.03,-1 21,6.63 3.97,7.63 1,17.03 -6.63,21 -7.63,3.97 -17.03,1 -21,-6.63 -3.97,-7.63 -1,-17.03 6.63,-21 z"
               id="path1517" />
            <circle
               cx="905.89001"
               cy="201.42"
               r="13.44"
               transform="rotate(-27.48,905.78191,201.42989)"
               id="circle1519" />
            <path
               d="m 620.34,283.86 c 1.37,-0.71 3.06,-0.18 3.77,1.19 0.71,1.37 0.18,3.06 -1.19,3.77 -1.37,0.71 -3.06,0.18 -3.77,-1.19 -0.71,-1.37 -0.18,-3.06 1.19,-3.77 z"
               id="path1521" />
            <circle
               cx="630.10999"
               cy="245.24001"
               r="3.96"
               id="circle1523" />
            <path
               d="m 645.22,202.57 c 2.48,-1.29 5.54,-0.32 6.83,2.16 1.29,2.48 0.32,5.54 -2.16,6.83 -2.48,1.29 -5.54,0.32 -6.83,-2.16 -1.29,-2.48 -0.32,-5.54 2.16,-6.83 z"
               id="path1525" />
            <path
               d="m 670.17,168.25 c 3.02,-1.57 6.74,-0.4 8.31,2.62 1.57,3.02 0.4,6.74 -2.62,8.31 -3.02,1.57 -6.74,0.4 -8.31,-2.62 -1.57,-3.02 -0.4,-6.74 2.62,-8.31 z"
               id="path1527" />
            <path
               d="m 701.88,140.4 c 3.56,-1.85 7.95,-0.47 9.8,3.09 1.85,3.56 0.47,7.95 -3.09,9.8 -3.56,1.85 -7.95,0.47 -9.8,-3.09 -1.85,-3.56 -0.47,-7.95 3.09,-9.8 z"
               id="path1529" />
            <path
               d="m 738.86,120.59 c 4.01,-2.09 8.96,-0.53 11.04,3.49 2.09,4.01 0.53,8.96 -3.49,11.04 -4.02,2.08 -8.96,0.53 -11.04,-3.49 -2.09,-4.01 -0.53,-8.96 3.49,-11.04 z"
               id="path1531" />
            <path
               d="m 779.17,109.66 c 4.43,-2.31 9.9,-0.58 12.2,3.85 2.31,4.43 0.58,9.9 -3.85,12.2 -4.43,2.31 -9.9,0.58 -12.2,-3.85 -2.31,-4.43 -0.58,-9.9 3.85,-12.2 z"
               id="path1533" />
            <path
               d="m 820.75,107.96 c 4.86,-2.53 10.84,-0.64 13.37,4.22 2.53,4.86 0.64,10.84 -4.22,13.37 -4.86,2.53 -10.84,0.64 -13.37,-4.22 -2.53,-4.86 -0.64,-10.84 4.22,-13.37 z"
               id="path1535" />
            <circle
               cx="866.41998"
               cy="125.22"
               r="10.77"
               id="circle1537" />
            <path
               d="m 899.23,132.33 c 5.7,-2.96 12.73,-0.75 15.69,4.95 2.96,5.7 0.75,12.73 -4.95,15.69 -5.7,2.96 -12.73,0.75 -15.69,-4.95 -2.96,-5.7 -0.75,-12.73 4.95,-15.69 z"
               id="path1539" />
            <path
               d="m 932.15,156.96 c 6.16,-3.2 13.74,-0.81 16.94,5.35 3.2,6.16 0.81,13.74 -5.35,16.94 -6.16,3.2 -13.74,0.81 -16.94,-5.35 -3.2,-6.16 -0.81,-13.74 5.35,-16.94 z"
               id="path1541" />
            <circle
               cx="964.83002"
               cy="200.31"
               r="13.58"
               transform="rotate(-27.48,964.71673,200.32357)"
               id="circle1543" />
            <path
               d="m 977.02,224.6 c 7.24,-3.77 16.17,-0.95 19.93,6.29 3.77,7.24 0.95,16.17 -6.29,19.93 -7.24,3.77 -16.17,0.95 -19.93,-6.29 -3.77,-7.24 -0.95,-16.17 6.29,-19.93 z"
               id="path1545" />
            <path
               d="m 989.28,264.47 c 7.24,-3.77 16.17,-0.95 19.93,6.29 3.77,7.24 0.95,16.17 -6.29,19.93 -7.24,3.77 -16.17,0.95 -19.93,-6.29 -3.77,-7.24 -0.95,-16.17 6.29,-19.93 z"
               id="path1547" />
            <path
               d="m 987.75,306.53 c 7.65,-3.98 17.09,-1 21.07,6.65 3.98,7.65 1,17.09 -6.65,21.07 -7.65,3.98 -17.09,1 -21.07,-6.65 -3.98,-7.65 -1,-17.09 6.65,-21.07 z"
               id="path1549" />
            <path
               d="m 979.7,348.4 c 7.23,-3.76 16.14,-0.95 19.9,6.28 3.76,7.23 0.95,16.14 -6.28,19.9 -7.23,3.76 -16.14,0.95 -19.9,-6.28 -3.76,-7.23 -0.95,-16.14 6.28,-19.9 z"
               id="path1551" />
            <path
               d="m 962.89,387.76 c 6.58,-3.42 14.69,-0.86 18.11,5.72 3.42,6.58 0.86,14.69 -5.72,18.11 -6.58,3.42 -14.69,0.86 -18.11,-5.72 -3.42,-6.58 -0.86,-14.69 5.72,-18.11 z"
               id="path1553" />
            <path
               d="m 935.26,422.75 c 7.26,-3.78 16.22,-0.95 19.99,6.31 3.78,7.26 0.95,16.22 -6.31,19.99 -7.26,3.78 -16.22,0.95 -19.99,-6.31 -3.78,-7.26 -0.95,-16.22 6.31,-19.99 z"
               id="path1555" />
            <path
               d="m 600.38,200.34 c 1.21,-0.63 2.7,-0.16 3.33,1.05 0.63,1.21 0.16,2.7 -1.05,3.33 -1.21,0.63 -2.7,0.16 -3.33,-1.05 -0.63,-1.21 -0.16,-2.7 1.05,-3.33 z"
               id="path1557" />
            <circle
               cx="622.44"
               cy="167.22"
               r="3.4100001"
               id="circle1559" />
            <path
               d="m 647.25,132.35 c 2.08,-1.08 4.65,-0.27 5.74,1.81 1.08,2.08 0.27,4.65 -1.81,5.74 -2.08,1.08 -4.65,0.27 -5.74,-1.81 -1.09,-2.08 -0.27,-4.65 1.81,-5.74 z"
               id="path1561" />
            <circle
               cx="680.96997"
               cy="110.15"
               r="5.0999999"
               id="circle1563" />
            <path
               d="m 713.99,84.8 c 2.91,-1.51 6.5,-0.38 8.01,2.53 1.51,2.91 0.38,6.5 -2.53,8.01 -2.91,1.51 -6.5,0.38 -8.01,-2.53 -1.51,-2.91 -0.38,-6.5 2.53,-8.01 z"
               id="path1565" />
            <path
               d="m 752.31,70.44 c 3.32,-1.73 7.42,-0.44 9.15,2.89 1.73,3.32 0.44,7.42 -2.89,9.15 -3.32,1.73 -7.42,0.44 -9.15,-2.89 -1.73,-3.32 -0.44,-7.42 2.89,-9.15 z"
               id="path1567" />
            <path
               d="m 792.43,63.06 c 3.71,-1.93 8.29,-0.49 10.22,3.23 1.93,3.71 0.49,8.29 -3.23,10.22 -3.71,1.93 -8.29,0.49 -10.22,-3.23 -1.93,-3.72 -0.49,-8.29 3.23,-10.22 z"
               id="path1569" />
            <path
               d="m 833.15,62.99 c 4.04,-2.1 9.01,-0.53 11.11,3.51 2.1,4.04 0.53,9.01 -3.51,11.11 -4.04,2.1 -9.01,0.53 -11.11,-3.51 -2.1,-4.04 -0.53,-9.01 3.51,-11.11 z"
               id="path1571" />
            <path
               d="m 873.16,70.04 c 4.36,-2.27 9.73,-0.57 12,3.79 2.27,4.36 0.57,9.73 -3.79,12 -4.36,2.27 -9.73,0.57 -12,-3.79 -2.27,-4.36 -0.57,-9.73 3.79,-12 z"
               id="path1573" />
            <path
               d="m 911.26,83.9 c 4.68,-2.43 10.45,-0.61 12.89,4.07 2.43,4.68 0.61,10.45 -4.07,12.89 -4.68,2.43 -10.45,0.61 -12.89,-4.07 -2.43,-4.68 -0.61,-10.45 4.07,-12.89 z"
               id="path1575" />
            <circle
               cx="950.97998"
               cy="113.29"
               r="10.21"
               id="circle1577" />
            <path
               d="m 977.07,130.41 c 5.33,-2.77 11.89,-0.7 14.66,4.63 2.77,5.33 0.7,11.89 -4.63,14.66 -5.33,2.77 -11.89,0.7 -14.66,-4.63 -2.77,-5.33 -0.7,-11.89 4.63,-14.66 z"
               id="path1579" />
            <path
               d="m 1002.74,161.58 c 5.65,-2.94 12.61,-0.74 15.55,4.91 2.94,5.65 0.74,12.61 -4.91,15.55 -5.65,2.94 -12.61,0.74 -15.55,-4.91 -2.94,-5.65 -0.74,-12.61 4.91,-15.55 z"
               id="path1581" />
            <path
               d="m 1022.51,196.71 c 6,-3.12 13.39,-0.79 16.51,5.21 3.12,6 0.79,13.39 -5.21,16.51 -6,3.12 -13.39,0.79 -16.51,-5.21 -3.12,-6 -0.79,-13.39 5.21,-16.51 z"
               id="path1583" />
            <path
               d="m 1035.77,234.74 c 6.37,-3.31 14.22,-0.83 17.54,5.54 3.31,6.37 0.83,14.22 -5.54,17.54 -6.37,3.31 -14.22,0.83 -17.54,-5.54 -3.31,-6.37 -0.83,-14.22 5.54,-17.54 z"
               id="path1585" />
            <path
               d="m 1042.05,274.45 c 6.8,-3.54 15.17,-0.89 18.71,5.91 3.54,6.8 0.89,15.17 -5.91,18.71 -6.8,3.54 -15.17,0.89 -18.71,-5.91 -3.54,-6.8 -0.89,-15.17 5.91,-18.71 z"
               id="path1587" />
            <path
               d="m 1041.14,314.68 c 7.23,-3.76 16.15,-0.95 19.91,6.29 3.76,7.23 0.95,16.15 -6.29,19.91 -7.23,3.76 -16.15,0.95 -19.91,-6.29 -3.76,-7.23 -0.95,-16.15 6.29,-19.91 z"
               id="path1589" />
            <path
               d="m 1033.26,354.51 c 7.5,-3.9 16.74,-0.98 20.64,6.52 3.9,7.5 0.98,16.74 -6.52,20.64 -7.5,3.9 -16.74,0.98 -20.64,-6.52 -3.9,-7.5 -0.98,-16.74 6.52,-20.64 z"
               id="path1591" />
            <path
               d="m 1018.79,392.85 c 7.54,-3.92 16.83,-0.99 20.75,6.55 3.92,7.54 0.99,16.83 -6.55,20.75 -7.54,3.92 -16.83,0.99 -20.75,-6.55 -3.92,-7.54 -0.99,-16.83 6.55,-20.75 z"
               id="path1593" />
          </g>
        </g>
      </g>
    </g>
  </g>
</svg>
